G04 #@! TF.GenerationSoftware,KiCad,Pcbnew,(5.1.5-0-10_14)*
G04 #@! TF.CreationDate,2020-01-24T22:17:13-08:00*
G04 #@! TF.ProjectId,esp32-color-lamp-stand,65737033-322d-4636-9f6c-6f722d6c616d,rev?*
G04 #@! TF.SameCoordinates,Original*
G04 #@! TF.FileFunction,Legend,Top*
G04 #@! TF.FilePolarity,Positive*
%FSLAX46Y46*%
G04 Gerber Fmt 4.6, Leading zero omitted, Abs format (unit mm)*
G04 Created by KiCad (PCBNEW (5.1.5-0-10_14)) date 2020-01-24 22:17:13*
%MOMM*%
%LPD*%
G04 APERTURE LIST*
%ADD10C,0.250000*%
%ADD11C,0.300000*%
%ADD12C,0.120000*%
%ADD13C,0.010000*%
%ADD14C,0.150000*%
%ADD15C,0.015000*%
G04 APERTURE END LIST*
D10*
X202238871Y-69562185D02*
X203310300Y-69562185D01*
X203524585Y-69633614D01*
X203667442Y-69776471D01*
X203738871Y-69990757D01*
X203738871Y-70133614D01*
X203738871Y-68133614D02*
X203738871Y-68847900D01*
X202238871Y-68847900D01*
X203596014Y-66776471D02*
X203667442Y-66847900D01*
X203738871Y-67062185D01*
X203738871Y-67205042D01*
X203667442Y-67419328D01*
X203524585Y-67562185D01*
X203381728Y-67633614D01*
X203096014Y-67705042D01*
X202881728Y-67705042D01*
X202596014Y-67633614D01*
X202453157Y-67562185D01*
X202310300Y-67419328D01*
X202238871Y-67205042D01*
X202238871Y-67062185D01*
X202310300Y-66847900D01*
X202381728Y-66776471D01*
X202238871Y-65705042D02*
X203310300Y-65705042D01*
X203524585Y-65776471D01*
X203667442Y-65919328D01*
X203738871Y-66133614D01*
X203738871Y-66276471D01*
X203738871Y-64276471D02*
X203738871Y-64990757D01*
X202238871Y-64990757D01*
X203596014Y-62919328D02*
X203667442Y-62990757D01*
X203738871Y-63205042D01*
X203738871Y-63347900D01*
X203667442Y-63562185D01*
X203524585Y-63705042D01*
X203381728Y-63776471D01*
X203096014Y-63847900D01*
X202881728Y-63847900D01*
X202596014Y-63776471D01*
X202453157Y-63705042D01*
X202310300Y-63562185D01*
X202238871Y-63347900D01*
X202238871Y-63205042D01*
X202310300Y-62990757D01*
X202381728Y-62919328D01*
X202238871Y-61847900D02*
X203310300Y-61847900D01*
X203524585Y-61919328D01*
X203667442Y-62062185D01*
X203738871Y-62276471D01*
X203738871Y-62419328D01*
X203738871Y-60419328D02*
X203738871Y-61133614D01*
X202238871Y-61133614D01*
X203596014Y-59062185D02*
X203667442Y-59133614D01*
X203738871Y-59347900D01*
X203738871Y-59490757D01*
X203667442Y-59705042D01*
X203524585Y-59847900D01*
X203381728Y-59919328D01*
X203096014Y-59990757D01*
X202881728Y-59990757D01*
X202596014Y-59919328D01*
X202453157Y-59847900D01*
X202310300Y-59705042D01*
X202238871Y-59490757D01*
X202238871Y-59347900D01*
X202310300Y-59133614D01*
X202381728Y-59062185D01*
X202238871Y-57990757D02*
X203310300Y-57990757D01*
X203524585Y-58062185D01*
X203667442Y-58205042D01*
X203738871Y-58419328D01*
X203738871Y-58562185D01*
X203738871Y-56562185D02*
X203738871Y-57276471D01*
X202238871Y-57276471D01*
X203596014Y-55205042D02*
X203667442Y-55276471D01*
X203738871Y-55490757D01*
X203738871Y-55633614D01*
X203667442Y-55847900D01*
X203524585Y-55990757D01*
X203381728Y-56062185D01*
X203096014Y-56133614D01*
X202881728Y-56133614D01*
X202596014Y-56062185D01*
X202453157Y-55990757D01*
X202310300Y-55847900D01*
X202238871Y-55633614D01*
X202238871Y-55490757D01*
X202310300Y-55276471D01*
X202381728Y-55205042D01*
D11*
X18746400Y-74844871D02*
X18746400Y-76059157D01*
X18674971Y-76202014D01*
X18603542Y-76273442D01*
X18460685Y-76344871D01*
X18246400Y-76344871D01*
X18103542Y-76273442D01*
X18746400Y-75773442D02*
X18603542Y-75844871D01*
X18317828Y-75844871D01*
X18174971Y-75773442D01*
X18103542Y-75702014D01*
X18032114Y-75559157D01*
X18032114Y-75130585D01*
X18103542Y-74987728D01*
X18174971Y-74916300D01*
X18317828Y-74844871D01*
X18603542Y-74844871D01*
X18746400Y-74916300D01*
X19460685Y-75844871D02*
X19460685Y-74844871D01*
X19460685Y-74344871D02*
X19389257Y-74416300D01*
X19460685Y-74487728D01*
X19532114Y-74416300D01*
X19460685Y-74344871D01*
X19460685Y-74487728D01*
X19960685Y-74844871D02*
X20532114Y-74844871D01*
X20174971Y-74344871D02*
X20174971Y-75630585D01*
X20246400Y-75773442D01*
X20389257Y-75844871D01*
X20532114Y-75844871D01*
X21032114Y-75844871D02*
X21032114Y-74344871D01*
X21674971Y-75844871D02*
X21674971Y-75059157D01*
X21603542Y-74916300D01*
X21460685Y-74844871D01*
X21246400Y-74844871D01*
X21103542Y-74916300D01*
X21032114Y-74987728D01*
X23032114Y-74844871D02*
X23032114Y-75844871D01*
X22389257Y-74844871D02*
X22389257Y-75630585D01*
X22460685Y-75773442D01*
X22603542Y-75844871D01*
X22817828Y-75844871D01*
X22960685Y-75773442D01*
X23032114Y-75702014D01*
X23746400Y-75844871D02*
X23746400Y-74344871D01*
X23746400Y-74916300D02*
X23889257Y-74844871D01*
X24174971Y-74844871D01*
X24317828Y-74916300D01*
X24389257Y-74987728D01*
X24460685Y-75130585D01*
X24460685Y-75559157D01*
X24389257Y-75702014D01*
X24317828Y-75773442D01*
X24174971Y-75844871D01*
X23889257Y-75844871D01*
X23746400Y-75773442D01*
X25103542Y-75702014D02*
X25174971Y-75773442D01*
X25103542Y-75844871D01*
X25032114Y-75773442D01*
X25103542Y-75702014D01*
X25103542Y-75844871D01*
X26460685Y-75773442D02*
X26317828Y-75844871D01*
X26032114Y-75844871D01*
X25889257Y-75773442D01*
X25817828Y-75702014D01*
X25746400Y-75559157D01*
X25746400Y-75130585D01*
X25817828Y-74987728D01*
X25889257Y-74916300D01*
X26032114Y-74844871D01*
X26317828Y-74844871D01*
X26460685Y-74916300D01*
X27317828Y-75844871D02*
X27174971Y-75773442D01*
X27103542Y-75702014D01*
X27032114Y-75559157D01*
X27032114Y-75130585D01*
X27103542Y-74987728D01*
X27174971Y-74916300D01*
X27317828Y-74844871D01*
X27532114Y-74844871D01*
X27674971Y-74916300D01*
X27746400Y-74987728D01*
X27817828Y-75130585D01*
X27817828Y-75559157D01*
X27746400Y-75702014D01*
X27674971Y-75773442D01*
X27532114Y-75844871D01*
X27317828Y-75844871D01*
X28460685Y-75844871D02*
X28460685Y-74844871D01*
X28460685Y-74987728D02*
X28532114Y-74916300D01*
X28674971Y-74844871D01*
X28889257Y-74844871D01*
X29032114Y-74916300D01*
X29103542Y-75059157D01*
X29103542Y-75844871D01*
X29103542Y-75059157D02*
X29174971Y-74916300D01*
X29317828Y-74844871D01*
X29532114Y-74844871D01*
X29674971Y-74916300D01*
X29746400Y-75059157D01*
X29746400Y-75844871D01*
X31532114Y-74273442D02*
X30246400Y-76202014D01*
X32246400Y-75844871D02*
X32103542Y-75773442D01*
X32032114Y-75630585D01*
X32032114Y-74344871D01*
X32817828Y-75844871D02*
X32817828Y-74844871D01*
X32817828Y-74344871D02*
X32746400Y-74416300D01*
X32817828Y-74487728D01*
X32889257Y-74416300D01*
X32817828Y-74344871D01*
X32817828Y-74487728D01*
X33389257Y-74844871D02*
X33746400Y-75844871D01*
X34103542Y-74844871D02*
X33746400Y-75844871D01*
X33603542Y-76202014D01*
X33532114Y-76273442D01*
X33389257Y-76344871D01*
X35317828Y-75844871D02*
X35317828Y-75059157D01*
X35246400Y-74916300D01*
X35103542Y-74844871D01*
X34817828Y-74844871D01*
X34674971Y-74916300D01*
X35317828Y-75773442D02*
X35174971Y-75844871D01*
X34817828Y-75844871D01*
X34674971Y-75773442D01*
X34603542Y-75630585D01*
X34603542Y-75487728D01*
X34674971Y-75344871D01*
X34817828Y-75273442D01*
X35174971Y-75273442D01*
X35317828Y-75202014D01*
X36032114Y-74844871D02*
X36032114Y-75844871D01*
X36032114Y-74987728D02*
X36103542Y-74916300D01*
X36246400Y-74844871D01*
X36460685Y-74844871D01*
X36603542Y-74916300D01*
X36674971Y-75059157D01*
X36674971Y-75844871D01*
X38032114Y-75844871D02*
X38032114Y-75059157D01*
X37960685Y-74916300D01*
X37817828Y-74844871D01*
X37532114Y-74844871D01*
X37389257Y-74916300D01*
X38032114Y-75773442D02*
X37889257Y-75844871D01*
X37532114Y-75844871D01*
X37389257Y-75773442D01*
X37317828Y-75630585D01*
X37317828Y-75487728D01*
X37389257Y-75344871D01*
X37532114Y-75273442D01*
X37889257Y-75273442D01*
X38032114Y-75202014D01*
X39389257Y-74844871D02*
X39389257Y-76059157D01*
X39317828Y-76202014D01*
X39246400Y-76273442D01*
X39103542Y-76344871D01*
X38889257Y-76344871D01*
X38746400Y-76273442D01*
X39389257Y-75773442D02*
X39246400Y-75844871D01*
X38960685Y-75844871D01*
X38817828Y-75773442D01*
X38746400Y-75702014D01*
X38674971Y-75559157D01*
X38674971Y-75130585D01*
X38746400Y-74987728D01*
X38817828Y-74916300D01*
X38960685Y-74844871D01*
X39246400Y-74844871D01*
X39389257Y-74916300D01*
X40674971Y-75773442D02*
X40532114Y-75844871D01*
X40246400Y-75844871D01*
X40103542Y-75773442D01*
X40032114Y-75630585D01*
X40032114Y-75059157D01*
X40103542Y-74916300D01*
X40246400Y-74844871D01*
X40532114Y-74844871D01*
X40674971Y-74916300D01*
X40746400Y-75059157D01*
X40746400Y-75202014D01*
X40032114Y-75344871D01*
X42460685Y-74273442D02*
X41174971Y-76202014D01*
X43532114Y-75773442D02*
X43389257Y-75844871D01*
X43103542Y-75844871D01*
X42960685Y-75773442D01*
X42889257Y-75630585D01*
X42889257Y-75059157D01*
X42960685Y-74916300D01*
X43103542Y-74844871D01*
X43389257Y-74844871D01*
X43532114Y-74916300D01*
X43603542Y-75059157D01*
X43603542Y-75202014D01*
X42889257Y-75344871D01*
X44174971Y-75773442D02*
X44317828Y-75844871D01*
X44603542Y-75844871D01*
X44746400Y-75773442D01*
X44817828Y-75630585D01*
X44817828Y-75559157D01*
X44746400Y-75416300D01*
X44603542Y-75344871D01*
X44389257Y-75344871D01*
X44246400Y-75273442D01*
X44174971Y-75130585D01*
X44174971Y-75059157D01*
X44246400Y-74916300D01*
X44389257Y-74844871D01*
X44603542Y-74844871D01*
X44746400Y-74916300D01*
X45460685Y-74844871D02*
X45460685Y-76344871D01*
X45460685Y-74916300D02*
X45603542Y-74844871D01*
X45889257Y-74844871D01*
X46032114Y-74916300D01*
X46103542Y-74987728D01*
X46174971Y-75130585D01*
X46174971Y-75559157D01*
X46103542Y-75702014D01*
X46032114Y-75773442D01*
X45889257Y-75844871D01*
X45603542Y-75844871D01*
X45460685Y-75773442D01*
X46674971Y-74344871D02*
X47603542Y-74344871D01*
X47103542Y-74916300D01*
X47317828Y-74916300D01*
X47460685Y-74987728D01*
X47532114Y-75059157D01*
X47603542Y-75202014D01*
X47603542Y-75559157D01*
X47532114Y-75702014D01*
X47460685Y-75773442D01*
X47317828Y-75844871D01*
X46889257Y-75844871D01*
X46746400Y-75773442D01*
X46674971Y-75702014D01*
X48174971Y-74487728D02*
X48246400Y-74416300D01*
X48389257Y-74344871D01*
X48746400Y-74344871D01*
X48889257Y-74416300D01*
X48960685Y-74487728D01*
X49032114Y-74630585D01*
X49032114Y-74773442D01*
X48960685Y-74987728D01*
X48103542Y-75844871D01*
X49032114Y-75844871D01*
X49674971Y-75273442D02*
X50817828Y-75273442D01*
X52174971Y-75773442D02*
X52032114Y-75844871D01*
X51746400Y-75844871D01*
X51603542Y-75773442D01*
X51532114Y-75702014D01*
X51460685Y-75559157D01*
X51460685Y-75130585D01*
X51532114Y-74987728D01*
X51603542Y-74916300D01*
X51746400Y-74844871D01*
X52032114Y-74844871D01*
X52174971Y-74916300D01*
X53032114Y-75844871D02*
X52889257Y-75773442D01*
X52817828Y-75702014D01*
X52746400Y-75559157D01*
X52746400Y-75130585D01*
X52817828Y-74987728D01*
X52889257Y-74916300D01*
X53032114Y-74844871D01*
X53246400Y-74844871D01*
X53389257Y-74916300D01*
X53460685Y-74987728D01*
X53532114Y-75130585D01*
X53532114Y-75559157D01*
X53460685Y-75702014D01*
X53389257Y-75773442D01*
X53246400Y-75844871D01*
X53032114Y-75844871D01*
X54389257Y-75844871D02*
X54246400Y-75773442D01*
X54174971Y-75630585D01*
X54174971Y-74344871D01*
X55174971Y-75844871D02*
X55032114Y-75773442D01*
X54960685Y-75702014D01*
X54889257Y-75559157D01*
X54889257Y-75130585D01*
X54960685Y-74987728D01*
X55032114Y-74916300D01*
X55174971Y-74844871D01*
X55389257Y-74844871D01*
X55532114Y-74916300D01*
X55603542Y-74987728D01*
X55674971Y-75130585D01*
X55674971Y-75559157D01*
X55603542Y-75702014D01*
X55532114Y-75773442D01*
X55389257Y-75844871D01*
X55174971Y-75844871D01*
X56317828Y-75844871D02*
X56317828Y-74844871D01*
X56317828Y-75130585D02*
X56389257Y-74987728D01*
X56460685Y-74916300D01*
X56603542Y-74844871D01*
X56746400Y-74844871D01*
X57246400Y-75273442D02*
X58389257Y-75273442D01*
X59317828Y-75844871D02*
X59174971Y-75773442D01*
X59103542Y-75630585D01*
X59103542Y-74344871D01*
X60532114Y-75844871D02*
X60532114Y-75059157D01*
X60460685Y-74916300D01*
X60317828Y-74844871D01*
X60032114Y-74844871D01*
X59889257Y-74916300D01*
X60532114Y-75773442D02*
X60389257Y-75844871D01*
X60032114Y-75844871D01*
X59889257Y-75773442D01*
X59817828Y-75630585D01*
X59817828Y-75487728D01*
X59889257Y-75344871D01*
X60032114Y-75273442D01*
X60389257Y-75273442D01*
X60532114Y-75202014D01*
X61246400Y-75844871D02*
X61246400Y-74844871D01*
X61246400Y-74987728D02*
X61317828Y-74916300D01*
X61460685Y-74844871D01*
X61674971Y-74844871D01*
X61817828Y-74916300D01*
X61889257Y-75059157D01*
X61889257Y-75844871D01*
X61889257Y-75059157D02*
X61960685Y-74916300D01*
X62103542Y-74844871D01*
X62317828Y-74844871D01*
X62460685Y-74916300D01*
X62532114Y-75059157D01*
X62532114Y-75844871D01*
X63246400Y-74844871D02*
X63246400Y-76344871D01*
X63246400Y-74916300D02*
X63389257Y-74844871D01*
X63674971Y-74844871D01*
X63817828Y-74916300D01*
X63889257Y-74987728D01*
X63960685Y-75130585D01*
X63960685Y-75559157D01*
X63889257Y-75702014D01*
X63817828Y-75773442D01*
X63674971Y-75844871D01*
X63389257Y-75844871D01*
X63246400Y-75773442D01*
X64603542Y-75273442D02*
X65746400Y-75273442D01*
X66389257Y-75773442D02*
X66532114Y-75844871D01*
X66817828Y-75844871D01*
X66960685Y-75773442D01*
X67032114Y-75630585D01*
X67032114Y-75559157D01*
X66960685Y-75416300D01*
X66817828Y-75344871D01*
X66603542Y-75344871D01*
X66460685Y-75273442D01*
X66389257Y-75130585D01*
X66389257Y-75059157D01*
X66460685Y-74916300D01*
X66603542Y-74844871D01*
X66817828Y-74844871D01*
X66960685Y-74916300D01*
X67460685Y-74844871D02*
X68032114Y-74844871D01*
X67674971Y-74344871D02*
X67674971Y-75630585D01*
X67746400Y-75773442D01*
X67889257Y-75844871D01*
X68032114Y-75844871D01*
X69174971Y-75844871D02*
X69174971Y-75059157D01*
X69103542Y-74916300D01*
X68960685Y-74844871D01*
X68674971Y-74844871D01*
X68532114Y-74916300D01*
X69174971Y-75773442D02*
X69032114Y-75844871D01*
X68674971Y-75844871D01*
X68532114Y-75773442D01*
X68460685Y-75630585D01*
X68460685Y-75487728D01*
X68532114Y-75344871D01*
X68674971Y-75273442D01*
X69032114Y-75273442D01*
X69174971Y-75202014D01*
X69889257Y-74844871D02*
X69889257Y-75844871D01*
X69889257Y-74987728D02*
X69960685Y-74916300D01*
X70103542Y-74844871D01*
X70317828Y-74844871D01*
X70460685Y-74916300D01*
X70532114Y-75059157D01*
X70532114Y-75844871D01*
X71889257Y-75844871D02*
X71889257Y-74344871D01*
X71889257Y-75773442D02*
X71746400Y-75844871D01*
X71460685Y-75844871D01*
X71317828Y-75773442D01*
X71246400Y-75702014D01*
X71174971Y-75559157D01*
X71174971Y-75130585D01*
X71246400Y-74987728D01*
X71317828Y-74916300D01*
X71460685Y-74844871D01*
X71746400Y-74844871D01*
X71889257Y-74916300D01*
X17960685Y-77394871D02*
X18317828Y-78394871D01*
X18674971Y-77394871D01*
X20032114Y-78394871D02*
X19174971Y-78394871D01*
X19603542Y-78394871D02*
X19603542Y-76894871D01*
X19460685Y-77109157D01*
X19317828Y-77252014D01*
X19174971Y-77323442D01*
X20674971Y-78252014D02*
X20746400Y-78323442D01*
X20674971Y-78394871D01*
X20603542Y-78323442D01*
X20674971Y-78252014D01*
X20674971Y-78394871D01*
X22174971Y-78394871D02*
X21317828Y-78394871D01*
X21746400Y-78394871D02*
X21746400Y-76894871D01*
X21603542Y-77109157D01*
X21460685Y-77252014D01*
X21317828Y-77323442D01*
D12*
X109170400Y-26727678D02*
X109170400Y-26210522D01*
X110590400Y-26727678D02*
X110590400Y-26210522D01*
X101370200Y-26727678D02*
X101370200Y-26210522D01*
X99950200Y-26727678D02*
X99950200Y-26210522D01*
X90741422Y-36409700D02*
X91258578Y-36409700D01*
X90741422Y-34989700D02*
X91258578Y-34989700D01*
X90741422Y-31014600D02*
X91258578Y-31014600D01*
X90741422Y-32434600D02*
X91258578Y-32434600D01*
X109233900Y-35630378D02*
X109233900Y-35113222D01*
X110653900Y-35630378D02*
X110653900Y-35113222D01*
X87158000Y-47250000D02*
X87158000Y-48750000D01*
X87158000Y-39250000D02*
X85638000Y-39250000D01*
X87158000Y-39250000D02*
X87158000Y-40750000D01*
X84138000Y-48750000D02*
X79898000Y-48750000D01*
X87158000Y-48750000D02*
X85638000Y-48750000D01*
X84138000Y-39250000D02*
X79898000Y-39250000D01*
X136120878Y-31698000D02*
X135603722Y-31698000D01*
X136120878Y-30278000D02*
X135603722Y-30278000D01*
X90290000Y-40741422D02*
X90290000Y-41258578D01*
X91710000Y-40741422D02*
X91710000Y-41258578D01*
X91710000Y-46741422D02*
X91710000Y-47258578D01*
X90290000Y-46741422D02*
X90290000Y-47258578D01*
X81700000Y-52000000D02*
G75*
G03X81700000Y-52000000I-700000J0D01*
G01*
X81700000Y-55000000D02*
G75*
G03X81700000Y-55000000I-700000J0D01*
G01*
X103441900Y-25663500D02*
X103441900Y-27463500D01*
X106661900Y-27463500D02*
X106661900Y-25013500D01*
X120427300Y-34880000D02*
X119647300Y-34880000D01*
X119647300Y-34880000D02*
X119647300Y-35880000D01*
X120427300Y-53120000D02*
X119647300Y-53120000D01*
X119647300Y-53120000D02*
X119647300Y-52120000D01*
X145392300Y-34880000D02*
X145392300Y-53120000D01*
X145392300Y-53120000D02*
X138972300Y-53120000D01*
X145392300Y-34880000D02*
X138972300Y-34880000D01*
X138972300Y-34880000D02*
X138972300Y-34500000D01*
X107378500Y-49060000D02*
X109328500Y-49060000D01*
X107378500Y-49060000D02*
X105428500Y-49060000D01*
X107378500Y-38940000D02*
X109328500Y-38940000D01*
X107378500Y-38940000D02*
X103928500Y-38940000D01*
X121700000Y-69000000D02*
G75*
G03X121700000Y-69000000I-700000J0D01*
G01*
X121700000Y-72000000D02*
G75*
G03X121700000Y-72000000I-700000J0D01*
G01*
X121700000Y-64000000D02*
G75*
G03X121700000Y-64000000I-700000J0D01*
G01*
X121700000Y-61000000D02*
G75*
G03X121700000Y-61000000I-700000J0D01*
G01*
X106605300Y-52235100D02*
G75*
G03X106605300Y-52235100I-700000J0D01*
G01*
X103722400Y-56349900D02*
G75*
G03X103722400Y-56349900I-700000J0D01*
G01*
X125700000Y-18000000D02*
G75*
G03X125700000Y-18000000I-700000J0D01*
G01*
X121700000Y-18000000D02*
G75*
G03X121700000Y-18000000I-700000J0D01*
G01*
X129700000Y-18000000D02*
G75*
G03X129700000Y-18000000I-700000J0D01*
G01*
X112900000Y-80300000D02*
X119000000Y-80300000D01*
X112900000Y-81400000D02*
X112900000Y-80300000D01*
X119000000Y-85700000D02*
X114000000Y-85700000D01*
X129900000Y-80300000D02*
X136000000Y-80300000D01*
X129900000Y-81400000D02*
X129900000Y-80300000D01*
X136000000Y-85700000D02*
X131000000Y-85700000D01*
X153000000Y-85700000D02*
X148000000Y-85700000D01*
X146900000Y-81400000D02*
X146900000Y-80300000D01*
X146900000Y-80300000D02*
X153000000Y-80300000D01*
X163900000Y-80300000D02*
X170000000Y-80300000D01*
X163900000Y-81400000D02*
X163900000Y-80300000D01*
X170000000Y-85700000D02*
X165000000Y-85700000D01*
X180900000Y-80300000D02*
X187000000Y-80300000D01*
X180900000Y-81400000D02*
X180900000Y-80300000D01*
X187000000Y-85700000D02*
X182000000Y-85700000D01*
X204000000Y-85700000D02*
X199000000Y-85700000D01*
X197900000Y-81400000D02*
X197900000Y-80300000D01*
X197900000Y-80300000D02*
X204000000Y-80300000D01*
X208300000Y-73100000D02*
X208300000Y-67000000D01*
X209400000Y-73100000D02*
X208300000Y-73100000D01*
X213700000Y-67000000D02*
X213700000Y-72000000D01*
X213700000Y-50000000D02*
X213700000Y-55000000D01*
X209400000Y-56100000D02*
X208300000Y-56100000D01*
X208300000Y-56100000D02*
X208300000Y-50000000D01*
X208300000Y-39100000D02*
X208300000Y-33000000D01*
X209400000Y-39100000D02*
X208300000Y-39100000D01*
X213700000Y-33000000D02*
X213700000Y-38000000D01*
X213700000Y-16000000D02*
X213700000Y-21000000D01*
X209400000Y-22100000D02*
X208300000Y-22100000D01*
X208300000Y-22100000D02*
X208300000Y-16000000D01*
X205100000Y-7700000D02*
X199000000Y-7700000D01*
X205100000Y-6600000D02*
X205100000Y-7700000D01*
X199000000Y-2300000D02*
X204000000Y-2300000D01*
X182000000Y-2300000D02*
X187000000Y-2300000D01*
X188100000Y-6600000D02*
X188100000Y-7700000D01*
X188100000Y-7700000D02*
X182000000Y-7700000D01*
X171100000Y-7700000D02*
X165000000Y-7700000D01*
X171100000Y-6600000D02*
X171100000Y-7700000D01*
X165000000Y-2300000D02*
X170000000Y-2300000D01*
X148000000Y-2300000D02*
X153000000Y-2300000D01*
X154100000Y-6600000D02*
X154100000Y-7700000D01*
X154100000Y-7700000D02*
X148000000Y-7700000D01*
X137100000Y-7700000D02*
X131000000Y-7700000D01*
X137100000Y-6600000D02*
X137100000Y-7700000D01*
X131000000Y-2300000D02*
X136000000Y-2300000D01*
X114000000Y-2300000D02*
X119000000Y-2300000D01*
X120100000Y-6600000D02*
X120100000Y-7700000D01*
X120100000Y-7700000D02*
X114000000Y-7700000D01*
X97000000Y-2300000D02*
X102000000Y-2300000D01*
X103100000Y-6600000D02*
X103100000Y-7700000D01*
X103100000Y-7700000D02*
X97000000Y-7700000D01*
X86100000Y-7700000D02*
X80000000Y-7700000D01*
X86100000Y-6600000D02*
X86100000Y-7700000D01*
X80000000Y-2300000D02*
X85000000Y-2300000D01*
X63000000Y-2300000D02*
X68000000Y-2300000D01*
X69100000Y-6600000D02*
X69100000Y-7700000D01*
X69100000Y-7700000D02*
X63000000Y-7700000D01*
X52100000Y-7700000D02*
X46000000Y-7700000D01*
X52100000Y-6600000D02*
X52100000Y-7700000D01*
X46000000Y-2300000D02*
X51000000Y-2300000D01*
X29000000Y-2300000D02*
X34000000Y-2300000D01*
X35100000Y-6600000D02*
X35100000Y-7700000D01*
X35100000Y-7700000D02*
X29000000Y-7700000D01*
X18100000Y-7700000D02*
X12000000Y-7700000D01*
X18100000Y-6600000D02*
X18100000Y-7700000D01*
X12000000Y-2300000D02*
X17000000Y-2300000D01*
X2300000Y-21000000D02*
X2300000Y-16000000D01*
X6600000Y-14900000D02*
X7700000Y-14900000D01*
X7700000Y-14900000D02*
X7700000Y-21000000D01*
X7700000Y-31900000D02*
X7700000Y-38000000D01*
X6600000Y-31900000D02*
X7700000Y-31900000D01*
X2300000Y-38000000D02*
X2300000Y-33000000D01*
X2300000Y-55000000D02*
X2300000Y-50000000D01*
X6600000Y-48900000D02*
X7700000Y-48900000D01*
X7700000Y-48900000D02*
X7700000Y-55000000D01*
X7700000Y-65900000D02*
X7700000Y-72000000D01*
X6600000Y-65900000D02*
X7700000Y-65900000D01*
X2300000Y-72000000D02*
X2300000Y-67000000D01*
X17000000Y-85700000D02*
X12000000Y-85700000D01*
X10900000Y-81400000D02*
X10900000Y-80300000D01*
X10900000Y-80300000D02*
X17000000Y-80300000D01*
X27900000Y-80300000D02*
X34000000Y-80300000D01*
X27900000Y-81400000D02*
X27900000Y-80300000D01*
X34000000Y-85700000D02*
X29000000Y-85700000D01*
X51000000Y-85700000D02*
X46000000Y-85700000D01*
X44900000Y-81400000D02*
X44900000Y-80300000D01*
X44900000Y-80300000D02*
X51000000Y-80300000D01*
X61900000Y-80300000D02*
X68000000Y-80300000D01*
X61900000Y-81400000D02*
X61900000Y-80300000D01*
X68000000Y-85700000D02*
X63000000Y-85700000D01*
X85000000Y-85700000D02*
X80000000Y-85700000D01*
X78900000Y-81400000D02*
X78900000Y-80300000D01*
X78900000Y-80300000D02*
X85000000Y-80300000D01*
X95900000Y-80300000D02*
X102000000Y-80300000D01*
X95900000Y-81400000D02*
X95900000Y-80300000D01*
X102000000Y-85700000D02*
X97000000Y-85700000D01*
D13*
G36*
X110670760Y-59093100D02*
G01*
X109905800Y-59093100D01*
X109905800Y-58835230D01*
X110670760Y-58835230D01*
X110670760Y-59093100D01*
G37*
X110670760Y-59093100D02*
X109905800Y-59093100D01*
X109905800Y-58835230D01*
X110670760Y-58835230D01*
X110670760Y-59093100D01*
D14*
X108587542Y-26635766D02*
X108635161Y-26683385D01*
X108682780Y-26826242D01*
X108682780Y-26921480D01*
X108635161Y-27064338D01*
X108539923Y-27159576D01*
X108444685Y-27207195D01*
X108254209Y-27254814D01*
X108111352Y-27254814D01*
X107920876Y-27207195D01*
X107825638Y-27159576D01*
X107730400Y-27064338D01*
X107682780Y-26921480D01*
X107682780Y-26826242D01*
X107730400Y-26683385D01*
X107778019Y-26635766D01*
X108682780Y-25683385D02*
X108682780Y-26254814D01*
X108682780Y-25969100D02*
X107682780Y-25969100D01*
X107825638Y-26064338D01*
X107920876Y-26159576D01*
X107968495Y-26254814D01*
X99367342Y-26635766D02*
X99414961Y-26683385D01*
X99462580Y-26826242D01*
X99462580Y-26921480D01*
X99414961Y-27064338D01*
X99319723Y-27159576D01*
X99224485Y-27207195D01*
X99034009Y-27254814D01*
X98891152Y-27254814D01*
X98700676Y-27207195D01*
X98605438Y-27159576D01*
X98510200Y-27064338D01*
X98462580Y-26921480D01*
X98462580Y-26826242D01*
X98510200Y-26683385D01*
X98557819Y-26635766D01*
X98557819Y-26254814D02*
X98510200Y-26207195D01*
X98462580Y-26111957D01*
X98462580Y-25873861D01*
X98510200Y-25778623D01*
X98557819Y-25731004D01*
X98653057Y-25683385D01*
X98748295Y-25683385D01*
X98891152Y-25731004D01*
X99462580Y-26302433D01*
X99462580Y-25683385D01*
X90833333Y-34406842D02*
X90785714Y-34454461D01*
X90642857Y-34502080D01*
X90547619Y-34502080D01*
X90404761Y-34454461D01*
X90309523Y-34359223D01*
X90261904Y-34263985D01*
X90214285Y-34073509D01*
X90214285Y-33930652D01*
X90261904Y-33740176D01*
X90309523Y-33644938D01*
X90404761Y-33549700D01*
X90547619Y-33502080D01*
X90642857Y-33502080D01*
X90785714Y-33549700D01*
X90833333Y-33597319D01*
X91166666Y-33502080D02*
X91785714Y-33502080D01*
X91452380Y-33883033D01*
X91595238Y-33883033D01*
X91690476Y-33930652D01*
X91738095Y-33978271D01*
X91785714Y-34073509D01*
X91785714Y-34311604D01*
X91738095Y-34406842D01*
X91690476Y-34454461D01*
X91595238Y-34502080D01*
X91309523Y-34502080D01*
X91214285Y-34454461D01*
X91166666Y-34406842D01*
X90833333Y-30431742D02*
X90785714Y-30479361D01*
X90642857Y-30526980D01*
X90547619Y-30526980D01*
X90404761Y-30479361D01*
X90309523Y-30384123D01*
X90261904Y-30288885D01*
X90214285Y-30098409D01*
X90214285Y-29955552D01*
X90261904Y-29765076D01*
X90309523Y-29669838D01*
X90404761Y-29574600D01*
X90547619Y-29526980D01*
X90642857Y-29526980D01*
X90785714Y-29574600D01*
X90833333Y-29622219D01*
X91690476Y-29860314D02*
X91690476Y-30526980D01*
X91452380Y-29479361D02*
X91214285Y-30193647D01*
X91833333Y-30193647D01*
X108651042Y-35538466D02*
X108698661Y-35586085D01*
X108746280Y-35728942D01*
X108746280Y-35824180D01*
X108698661Y-35967038D01*
X108603423Y-36062276D01*
X108508185Y-36109895D01*
X108317709Y-36157514D01*
X108174852Y-36157514D01*
X107984376Y-36109895D01*
X107889138Y-36062276D01*
X107793900Y-35967038D01*
X107746280Y-35824180D01*
X107746280Y-35728942D01*
X107793900Y-35586085D01*
X107841519Y-35538466D01*
X107746280Y-34633704D02*
X107746280Y-35109895D01*
X108222471Y-35157514D01*
X108174852Y-35109895D01*
X108127233Y-35014657D01*
X108127233Y-34776561D01*
X108174852Y-34681323D01*
X108222471Y-34633704D01*
X108317709Y-34586085D01*
X108555804Y-34586085D01*
X108651042Y-34633704D01*
X108698661Y-34681323D01*
X108746280Y-34776561D01*
X108746280Y-35014657D01*
X108698661Y-35109895D01*
X108651042Y-35157514D01*
X87958680Y-46053333D02*
X88672966Y-46053333D01*
X88815823Y-46100952D01*
X88911061Y-46196190D01*
X88958680Y-46339047D01*
X88958680Y-46434285D01*
X88958680Y-45053333D02*
X88958680Y-45624761D01*
X88958680Y-45339047D02*
X87958680Y-45339047D01*
X88101538Y-45434285D01*
X88196776Y-45529523D01*
X88244395Y-45624761D01*
X135695633Y-33090380D02*
X135362300Y-32614190D01*
X135124204Y-33090380D02*
X135124204Y-32090380D01*
X135505157Y-32090380D01*
X135600395Y-32138000D01*
X135648014Y-32185619D01*
X135695633Y-32280857D01*
X135695633Y-32423714D01*
X135648014Y-32518952D01*
X135600395Y-32566571D01*
X135505157Y-32614190D01*
X135124204Y-32614190D01*
X136648014Y-33090380D02*
X136076585Y-33090380D01*
X136362300Y-33090380D02*
X136362300Y-32090380D01*
X136267061Y-32233238D01*
X136171823Y-32328476D01*
X136076585Y-32376095D01*
X93102380Y-41166666D02*
X92626190Y-41500000D01*
X93102380Y-41738095D02*
X92102380Y-41738095D01*
X92102380Y-41357142D01*
X92150000Y-41261904D01*
X92197619Y-41214285D01*
X92292857Y-41166666D01*
X92435714Y-41166666D01*
X92530952Y-41214285D01*
X92578571Y-41261904D01*
X92626190Y-41357142D01*
X92626190Y-41738095D01*
X92197619Y-40785714D02*
X92150000Y-40738095D01*
X92102380Y-40642857D01*
X92102380Y-40404761D01*
X92150000Y-40309523D01*
X92197619Y-40261904D01*
X92292857Y-40214285D01*
X92388095Y-40214285D01*
X92530952Y-40261904D01*
X93102380Y-40833333D01*
X93102380Y-40214285D01*
X93102380Y-47166666D02*
X92626190Y-47500000D01*
X93102380Y-47738095D02*
X92102380Y-47738095D01*
X92102380Y-47357142D01*
X92150000Y-47261904D01*
X92197619Y-47214285D01*
X92292857Y-47166666D01*
X92435714Y-47166666D01*
X92530952Y-47214285D01*
X92578571Y-47261904D01*
X92626190Y-47357142D01*
X92626190Y-47738095D01*
X92102380Y-46833333D02*
X92102380Y-46214285D01*
X92483333Y-46547619D01*
X92483333Y-46404761D01*
X92530952Y-46309523D01*
X92578571Y-46261904D01*
X92673809Y-46214285D01*
X92911904Y-46214285D01*
X93007142Y-46261904D01*
X93054761Y-46309523D01*
X93102380Y-46404761D01*
X93102380Y-46690476D01*
X93054761Y-46785714D01*
X93007142Y-46833333D01*
X82670995Y-51484280D02*
X82670995Y-52293804D01*
X82718614Y-52389042D01*
X82766233Y-52436661D01*
X82861471Y-52484280D01*
X83051947Y-52484280D01*
X83147185Y-52436661D01*
X83194804Y-52389042D01*
X83242423Y-52293804D01*
X83242423Y-51484280D01*
X83670995Y-52436661D02*
X83813852Y-52484280D01*
X84051947Y-52484280D01*
X84147185Y-52436661D01*
X84194804Y-52389042D01*
X84242423Y-52293804D01*
X84242423Y-52198566D01*
X84194804Y-52103328D01*
X84147185Y-52055709D01*
X84051947Y-52008090D01*
X83861471Y-51960471D01*
X83766233Y-51912852D01*
X83718614Y-51865233D01*
X83670995Y-51769995D01*
X83670995Y-51674757D01*
X83718614Y-51579519D01*
X83766233Y-51531900D01*
X83861471Y-51484280D01*
X84099566Y-51484280D01*
X84242423Y-51531900D01*
X85004328Y-51960471D02*
X85147185Y-52008090D01*
X85194804Y-52055709D01*
X85242423Y-52150947D01*
X85242423Y-52293804D01*
X85194804Y-52389042D01*
X85147185Y-52436661D01*
X85051947Y-52484280D01*
X84670995Y-52484280D01*
X84670995Y-51484280D01*
X85004328Y-51484280D01*
X85099566Y-51531900D01*
X85147185Y-51579519D01*
X85194804Y-51674757D01*
X85194804Y-51769995D01*
X85147185Y-51865233D01*
X85099566Y-51912852D01*
X85004328Y-51960471D01*
X84670995Y-51960471D01*
X86432900Y-52484280D02*
X86432900Y-51484280D01*
X86670995Y-51484280D01*
X86813852Y-51531900D01*
X86909090Y-51627138D01*
X86956709Y-51722376D01*
X87004328Y-51912852D01*
X87004328Y-52055709D01*
X86956709Y-52246185D01*
X86909090Y-52341423D01*
X86813852Y-52436661D01*
X86670995Y-52484280D01*
X86432900Y-52484280D01*
X87432900Y-52103328D02*
X88194804Y-52103328D01*
X87813852Y-52484280D02*
X87813852Y-51722376D01*
X82632895Y-54519580D02*
X82632895Y-55329104D01*
X82680514Y-55424342D01*
X82728133Y-55471961D01*
X82823371Y-55519580D01*
X83013847Y-55519580D01*
X83109085Y-55471961D01*
X83156704Y-55424342D01*
X83204323Y-55329104D01*
X83204323Y-54519580D01*
X83632895Y-55471961D02*
X83775752Y-55519580D01*
X84013847Y-55519580D01*
X84109085Y-55471961D01*
X84156704Y-55424342D01*
X84204323Y-55329104D01*
X84204323Y-55233866D01*
X84156704Y-55138628D01*
X84109085Y-55091009D01*
X84013847Y-55043390D01*
X83823371Y-54995771D01*
X83728133Y-54948152D01*
X83680514Y-54900533D01*
X83632895Y-54805295D01*
X83632895Y-54710057D01*
X83680514Y-54614819D01*
X83728133Y-54567200D01*
X83823371Y-54519580D01*
X84061466Y-54519580D01*
X84204323Y-54567200D01*
X84966228Y-54995771D02*
X85109085Y-55043390D01*
X85156704Y-55091009D01*
X85204323Y-55186247D01*
X85204323Y-55329104D01*
X85156704Y-55424342D01*
X85109085Y-55471961D01*
X85013847Y-55519580D01*
X84632895Y-55519580D01*
X84632895Y-54519580D01*
X84966228Y-54519580D01*
X85061466Y-54567200D01*
X85109085Y-54614819D01*
X85156704Y-54710057D01*
X85156704Y-54805295D01*
X85109085Y-54900533D01*
X85061466Y-54948152D01*
X84966228Y-54995771D01*
X84632895Y-54995771D01*
X86394800Y-55519580D02*
X86394800Y-54519580D01*
X86632895Y-54519580D01*
X86775752Y-54567200D01*
X86870990Y-54662438D01*
X86918609Y-54757676D01*
X86966228Y-54948152D01*
X86966228Y-55091009D01*
X86918609Y-55281485D01*
X86870990Y-55376723D01*
X86775752Y-55471961D01*
X86632895Y-55519580D01*
X86394800Y-55519580D01*
X87394800Y-55138628D02*
X88156704Y-55138628D01*
X104368695Y-23226780D02*
X104368695Y-24036304D01*
X104416314Y-24131542D01*
X104463933Y-24179161D01*
X104559171Y-24226780D01*
X104749647Y-24226780D01*
X104844885Y-24179161D01*
X104892504Y-24131542D01*
X104940123Y-24036304D01*
X104940123Y-23226780D01*
X105940123Y-24226780D02*
X105368695Y-24226780D01*
X105654409Y-24226780D02*
X105654409Y-23226780D01*
X105559171Y-23369638D01*
X105463933Y-23464876D01*
X105368695Y-23512495D01*
X120335395Y-32842380D02*
X120335395Y-33651904D01*
X120383014Y-33747142D01*
X120430633Y-33794761D01*
X120525871Y-33842380D01*
X120716347Y-33842380D01*
X120811585Y-33794761D01*
X120859204Y-33747142D01*
X120906823Y-33651904D01*
X120906823Y-32842380D01*
X121335395Y-32937619D02*
X121383014Y-32890000D01*
X121478252Y-32842380D01*
X121716347Y-32842380D01*
X121811585Y-32890000D01*
X121859204Y-32937619D01*
X121906823Y-33032857D01*
X121906823Y-33128095D01*
X121859204Y-33270952D01*
X121287776Y-33842380D01*
X121906823Y-33842380D01*
X106616595Y-37552380D02*
X106616595Y-38361904D01*
X106664214Y-38457142D01*
X106711833Y-38504761D01*
X106807071Y-38552380D01*
X106997547Y-38552380D01*
X107092785Y-38504761D01*
X107140404Y-38457142D01*
X107188023Y-38361904D01*
X107188023Y-37552380D01*
X107568976Y-37552380D02*
X108188023Y-37552380D01*
X107854690Y-37933333D01*
X107997547Y-37933333D01*
X108092785Y-37980952D01*
X108140404Y-38028571D01*
X108188023Y-38123809D01*
X108188023Y-38361904D01*
X108140404Y-38457142D01*
X108092785Y-38504761D01*
X107997547Y-38552380D01*
X107711833Y-38552380D01*
X107616595Y-38504761D01*
X107568976Y-38457142D01*
X123287976Y-69404761D02*
X123430833Y-69452380D01*
X123668928Y-69452380D01*
X123764166Y-69404761D01*
X123811785Y-69357142D01*
X123859404Y-69261904D01*
X123859404Y-69166666D01*
X123811785Y-69071428D01*
X123764166Y-69023809D01*
X123668928Y-68976190D01*
X123478452Y-68928571D01*
X123383214Y-68880952D01*
X123335595Y-68833333D01*
X123287976Y-68738095D01*
X123287976Y-68642857D01*
X123335595Y-68547619D01*
X123383214Y-68500000D01*
X123478452Y-68452380D01*
X123716547Y-68452380D01*
X123859404Y-68500000D01*
X124287976Y-69452380D02*
X124287976Y-68452380D01*
X124668928Y-68452380D01*
X124764166Y-68500000D01*
X124811785Y-68547619D01*
X124859404Y-68642857D01*
X124859404Y-68785714D01*
X124811785Y-68880952D01*
X124764166Y-68928571D01*
X124668928Y-68976190D01*
X124287976Y-68976190D01*
X125287976Y-69452380D02*
X125287976Y-68452380D01*
X127097500Y-69357142D02*
X127049880Y-69404761D01*
X126907023Y-69452380D01*
X126811785Y-69452380D01*
X126668928Y-69404761D01*
X126573690Y-69309523D01*
X126526071Y-69214285D01*
X126478452Y-69023809D01*
X126478452Y-68880952D01*
X126526071Y-68690476D01*
X126573690Y-68595238D01*
X126668928Y-68500000D01*
X126811785Y-68452380D01*
X126907023Y-68452380D01*
X127049880Y-68500000D01*
X127097500Y-68547619D01*
X127668928Y-69452380D02*
X127573690Y-69404761D01*
X127526071Y-69309523D01*
X127526071Y-68452380D01*
X128192738Y-69452380D02*
X128097500Y-69404761D01*
X128049880Y-69357142D01*
X128002261Y-69261904D01*
X128002261Y-68976190D01*
X128049880Y-68880952D01*
X128097500Y-68833333D01*
X128192738Y-68785714D01*
X128335595Y-68785714D01*
X128430833Y-68833333D01*
X128478452Y-68880952D01*
X128526071Y-68976190D01*
X128526071Y-69261904D01*
X128478452Y-69357142D01*
X128430833Y-69404761D01*
X128335595Y-69452380D01*
X128192738Y-69452380D01*
X129383214Y-69404761D02*
X129287976Y-69452380D01*
X129097500Y-69452380D01*
X129002261Y-69404761D01*
X128954642Y-69357142D01*
X128907023Y-69261904D01*
X128907023Y-68976190D01*
X128954642Y-68880952D01*
X129002261Y-68833333D01*
X129097500Y-68785714D01*
X129287976Y-68785714D01*
X129383214Y-68833333D01*
X129811785Y-69452380D02*
X129811785Y-68452380D01*
X129907023Y-69071428D02*
X130192738Y-69452380D01*
X130192738Y-68785714D02*
X129811785Y-69166666D01*
X131859404Y-68452380D02*
X131383214Y-68452380D01*
X131335595Y-68928571D01*
X131383214Y-68880952D01*
X131478452Y-68833333D01*
X131716547Y-68833333D01*
X131811785Y-68880952D01*
X131859404Y-68928571D01*
X131907023Y-69023809D01*
X131907023Y-69261904D01*
X131859404Y-69357142D01*
X131811785Y-69404761D01*
X131716547Y-69452380D01*
X131478452Y-69452380D01*
X131383214Y-69404761D01*
X131335595Y-69357142D01*
X132240357Y-68785714D02*
X132478452Y-69452380D01*
X132716547Y-68785714D01*
X123287976Y-72404761D02*
X123430833Y-72452380D01*
X123668928Y-72452380D01*
X123764166Y-72404761D01*
X123811785Y-72357142D01*
X123859404Y-72261904D01*
X123859404Y-72166666D01*
X123811785Y-72071428D01*
X123764166Y-72023809D01*
X123668928Y-71976190D01*
X123478452Y-71928571D01*
X123383214Y-71880952D01*
X123335595Y-71833333D01*
X123287976Y-71738095D01*
X123287976Y-71642857D01*
X123335595Y-71547619D01*
X123383214Y-71500000D01*
X123478452Y-71452380D01*
X123716547Y-71452380D01*
X123859404Y-71500000D01*
X124287976Y-72452380D02*
X124287976Y-71452380D01*
X124668928Y-71452380D01*
X124764166Y-71500000D01*
X124811785Y-71547619D01*
X124859404Y-71642857D01*
X124859404Y-71785714D01*
X124811785Y-71880952D01*
X124764166Y-71928571D01*
X124668928Y-71976190D01*
X124287976Y-71976190D01*
X125287976Y-72452380D02*
X125287976Y-71452380D01*
X126526071Y-72452380D02*
X126526071Y-71452380D01*
X126764166Y-71452380D01*
X126907023Y-71500000D01*
X127002261Y-71595238D01*
X127049880Y-71690476D01*
X127097500Y-71880952D01*
X127097500Y-72023809D01*
X127049880Y-72214285D01*
X127002261Y-72309523D01*
X126907023Y-72404761D01*
X126764166Y-72452380D01*
X126526071Y-72452380D01*
X127954642Y-72452380D02*
X127954642Y-71928571D01*
X127907023Y-71833333D01*
X127811785Y-71785714D01*
X127621309Y-71785714D01*
X127526071Y-71833333D01*
X127954642Y-72404761D02*
X127859404Y-72452380D01*
X127621309Y-72452380D01*
X127526071Y-72404761D01*
X127478452Y-72309523D01*
X127478452Y-72214285D01*
X127526071Y-72119047D01*
X127621309Y-72071428D01*
X127859404Y-72071428D01*
X127954642Y-72023809D01*
X128287976Y-71785714D02*
X128668928Y-71785714D01*
X128430833Y-71452380D02*
X128430833Y-72309523D01*
X128478452Y-72404761D01*
X128573690Y-72452380D01*
X128668928Y-72452380D01*
X129430833Y-72452380D02*
X129430833Y-71928571D01*
X129383214Y-71833333D01*
X129287976Y-71785714D01*
X129097500Y-71785714D01*
X129002261Y-71833333D01*
X129430833Y-72404761D02*
X129335595Y-72452380D01*
X129097500Y-72452380D01*
X129002261Y-72404761D01*
X128954642Y-72309523D01*
X128954642Y-72214285D01*
X129002261Y-72119047D01*
X129097500Y-72071428D01*
X129335595Y-72071428D01*
X129430833Y-72023809D01*
X131145119Y-71452380D02*
X130668928Y-71452380D01*
X130621309Y-71928571D01*
X130668928Y-71880952D01*
X130764166Y-71833333D01*
X131002261Y-71833333D01*
X131097500Y-71880952D01*
X131145119Y-71928571D01*
X131192738Y-72023809D01*
X131192738Y-72261904D01*
X131145119Y-72357142D01*
X131097500Y-72404761D01*
X131002261Y-72452380D01*
X130764166Y-72452380D01*
X130668928Y-72404761D01*
X130621309Y-72357142D01*
X131526071Y-71785714D02*
X131764166Y-72452380D01*
X132002261Y-71785714D01*
X123287976Y-64404761D02*
X123430833Y-64452380D01*
X123668928Y-64452380D01*
X123764166Y-64404761D01*
X123811785Y-64357142D01*
X123859404Y-64261904D01*
X123859404Y-64166666D01*
X123811785Y-64071428D01*
X123764166Y-64023809D01*
X123668928Y-63976190D01*
X123478452Y-63928571D01*
X123383214Y-63880952D01*
X123335595Y-63833333D01*
X123287976Y-63738095D01*
X123287976Y-63642857D01*
X123335595Y-63547619D01*
X123383214Y-63500000D01*
X123478452Y-63452380D01*
X123716547Y-63452380D01*
X123859404Y-63500000D01*
X124287976Y-64452380D02*
X124287976Y-63452380D01*
X124668928Y-63452380D01*
X124764166Y-63500000D01*
X124811785Y-63547619D01*
X124859404Y-63642857D01*
X124859404Y-63785714D01*
X124811785Y-63880952D01*
X124764166Y-63928571D01*
X124668928Y-63976190D01*
X124287976Y-63976190D01*
X125287976Y-64452380D02*
X125287976Y-63452380D01*
X126526071Y-64452380D02*
X126526071Y-63452380D01*
X126764166Y-63452380D01*
X126907023Y-63500000D01*
X127002261Y-63595238D01*
X127049880Y-63690476D01*
X127097500Y-63880952D01*
X127097500Y-64023809D01*
X127049880Y-64214285D01*
X127002261Y-64309523D01*
X126907023Y-64404761D01*
X126764166Y-64452380D01*
X126526071Y-64452380D01*
X127954642Y-64452380D02*
X127954642Y-63928571D01*
X127907023Y-63833333D01*
X127811785Y-63785714D01*
X127621309Y-63785714D01*
X127526071Y-63833333D01*
X127954642Y-64404761D02*
X127859404Y-64452380D01*
X127621309Y-64452380D01*
X127526071Y-64404761D01*
X127478452Y-64309523D01*
X127478452Y-64214285D01*
X127526071Y-64119047D01*
X127621309Y-64071428D01*
X127859404Y-64071428D01*
X127954642Y-64023809D01*
X128287976Y-63785714D02*
X128668928Y-63785714D01*
X128430833Y-63452380D02*
X128430833Y-64309523D01*
X128478452Y-64404761D01*
X128573690Y-64452380D01*
X128668928Y-64452380D01*
X129430833Y-64452380D02*
X129430833Y-63928571D01*
X129383214Y-63833333D01*
X129287976Y-63785714D01*
X129097500Y-63785714D01*
X129002261Y-63833333D01*
X129430833Y-64404761D02*
X129335595Y-64452380D01*
X129097500Y-64452380D01*
X129002261Y-64404761D01*
X128954642Y-64309523D01*
X128954642Y-64214285D01*
X129002261Y-64119047D01*
X129097500Y-64071428D01*
X129335595Y-64071428D01*
X129430833Y-64023809D01*
X130573690Y-63452380D02*
X131192738Y-63452380D01*
X130859404Y-63833333D01*
X131002261Y-63833333D01*
X131097500Y-63880952D01*
X131145119Y-63928571D01*
X131192738Y-64023809D01*
X131192738Y-64261904D01*
X131145119Y-64357142D01*
X131097500Y-64404761D01*
X131002261Y-64452380D01*
X130716547Y-64452380D01*
X130621309Y-64404761D01*
X130573690Y-64357142D01*
X131526071Y-63785714D02*
X131764166Y-64452380D01*
X132002261Y-63785714D01*
X132287976Y-63452380D02*
X132907023Y-63452380D01*
X132573690Y-63833333D01*
X132716547Y-63833333D01*
X132811785Y-63880952D01*
X132859404Y-63928571D01*
X132907023Y-64023809D01*
X132907023Y-64261904D01*
X132859404Y-64357142D01*
X132811785Y-64404761D01*
X132716547Y-64452380D01*
X132430833Y-64452380D01*
X132335595Y-64404761D01*
X132287976Y-64357142D01*
X123287976Y-61404761D02*
X123430833Y-61452380D01*
X123668928Y-61452380D01*
X123764166Y-61404761D01*
X123811785Y-61357142D01*
X123859404Y-61261904D01*
X123859404Y-61166666D01*
X123811785Y-61071428D01*
X123764166Y-61023809D01*
X123668928Y-60976190D01*
X123478452Y-60928571D01*
X123383214Y-60880952D01*
X123335595Y-60833333D01*
X123287976Y-60738095D01*
X123287976Y-60642857D01*
X123335595Y-60547619D01*
X123383214Y-60500000D01*
X123478452Y-60452380D01*
X123716547Y-60452380D01*
X123859404Y-60500000D01*
X124287976Y-61452380D02*
X124287976Y-60452380D01*
X124668928Y-60452380D01*
X124764166Y-60500000D01*
X124811785Y-60547619D01*
X124859404Y-60642857D01*
X124859404Y-60785714D01*
X124811785Y-60880952D01*
X124764166Y-60928571D01*
X124668928Y-60976190D01*
X124287976Y-60976190D01*
X125287976Y-61452380D02*
X125287976Y-60452380D01*
X127097500Y-61357142D02*
X127049880Y-61404761D01*
X126907023Y-61452380D01*
X126811785Y-61452380D01*
X126668928Y-61404761D01*
X126573690Y-61309523D01*
X126526071Y-61214285D01*
X126478452Y-61023809D01*
X126478452Y-60880952D01*
X126526071Y-60690476D01*
X126573690Y-60595238D01*
X126668928Y-60500000D01*
X126811785Y-60452380D01*
X126907023Y-60452380D01*
X127049880Y-60500000D01*
X127097500Y-60547619D01*
X127668928Y-61452380D02*
X127573690Y-61404761D01*
X127526071Y-61309523D01*
X127526071Y-60452380D01*
X128192738Y-61452380D02*
X128097500Y-61404761D01*
X128049880Y-61357142D01*
X128002261Y-61261904D01*
X128002261Y-60976190D01*
X128049880Y-60880952D01*
X128097500Y-60833333D01*
X128192738Y-60785714D01*
X128335595Y-60785714D01*
X128430833Y-60833333D01*
X128478452Y-60880952D01*
X128526071Y-60976190D01*
X128526071Y-61261904D01*
X128478452Y-61357142D01*
X128430833Y-61404761D01*
X128335595Y-61452380D01*
X128192738Y-61452380D01*
X129383214Y-61404761D02*
X129287976Y-61452380D01*
X129097500Y-61452380D01*
X129002261Y-61404761D01*
X128954642Y-61357142D01*
X128907023Y-61261904D01*
X128907023Y-60976190D01*
X128954642Y-60880952D01*
X129002261Y-60833333D01*
X129097500Y-60785714D01*
X129287976Y-60785714D01*
X129383214Y-60833333D01*
X129811785Y-61452380D02*
X129811785Y-60452380D01*
X129907023Y-61071428D02*
X130192738Y-61452380D01*
X130192738Y-60785714D02*
X129811785Y-61166666D01*
X131287976Y-60452380D02*
X131907023Y-60452380D01*
X131573690Y-60833333D01*
X131716547Y-60833333D01*
X131811785Y-60880952D01*
X131859404Y-60928571D01*
X131907023Y-61023809D01*
X131907023Y-61261904D01*
X131859404Y-61357142D01*
X131811785Y-61404761D01*
X131716547Y-61452380D01*
X131430833Y-61452380D01*
X131335595Y-61404761D01*
X131287976Y-61357142D01*
X132240357Y-60785714D02*
X132478452Y-61452380D01*
X132716547Y-60785714D01*
X133002261Y-60452380D02*
X133621309Y-60452380D01*
X133287976Y-60833333D01*
X133430833Y-60833333D01*
X133526071Y-60880952D01*
X133573690Y-60928571D01*
X133621309Y-61023809D01*
X133621309Y-61261904D01*
X133573690Y-61357142D01*
X133526071Y-61404761D01*
X133430833Y-61452380D01*
X133145119Y-61452380D01*
X133049880Y-61404761D01*
X133002261Y-61357142D01*
X107961133Y-52801780D02*
X107627800Y-52325590D01*
X107389704Y-52801780D02*
X107389704Y-51801780D01*
X107770657Y-51801780D01*
X107865895Y-51849400D01*
X107913514Y-51897019D01*
X107961133Y-51992257D01*
X107961133Y-52135114D01*
X107913514Y-52230352D01*
X107865895Y-52277971D01*
X107770657Y-52325590D01*
X107389704Y-52325590D01*
X108294466Y-51801780D02*
X108961133Y-52801780D01*
X108961133Y-51801780D02*
X108294466Y-52801780D01*
X104305195Y-55916580D02*
X104876623Y-55916580D01*
X104590909Y-56916580D02*
X104590909Y-55916580D01*
X105114719Y-55916580D02*
X105781385Y-56916580D01*
X105781385Y-55916580D02*
X105114719Y-56916580D01*
X124857142Y-15154280D02*
X124380952Y-15154280D01*
X124333333Y-15630471D01*
X124380952Y-15582852D01*
X124476190Y-15535233D01*
X124714285Y-15535233D01*
X124809523Y-15582852D01*
X124857142Y-15630471D01*
X124904761Y-15725709D01*
X124904761Y-15963804D01*
X124857142Y-16059042D01*
X124809523Y-16106661D01*
X124714285Y-16154280D01*
X124476190Y-16154280D01*
X124380952Y-16106661D01*
X124333333Y-16059042D01*
X125238095Y-15487614D02*
X125476190Y-16154280D01*
X125714285Y-15487614D01*
X120238095Y-15201900D02*
X120142857Y-15154280D01*
X120000000Y-15154280D01*
X119857142Y-15201900D01*
X119761904Y-15297138D01*
X119714285Y-15392376D01*
X119666666Y-15582852D01*
X119666666Y-15725709D01*
X119714285Y-15916185D01*
X119761904Y-16011423D01*
X119857142Y-16106661D01*
X120000000Y-16154280D01*
X120095238Y-16154280D01*
X120238095Y-16106661D01*
X120285714Y-16059042D01*
X120285714Y-15725709D01*
X120095238Y-15725709D01*
X120714285Y-16154280D02*
X120714285Y-15154280D01*
X121285714Y-16154280D01*
X121285714Y-15154280D01*
X121761904Y-16154280D02*
X121761904Y-15154280D01*
X122000000Y-15154280D01*
X122142857Y-15201900D01*
X122238095Y-15297138D01*
X122285714Y-15392376D01*
X122333333Y-15582852D01*
X122333333Y-15725709D01*
X122285714Y-15916185D01*
X122238095Y-16011423D01*
X122142857Y-16106661D01*
X122000000Y-16154280D01*
X121761904Y-16154280D01*
X127809523Y-15154280D02*
X128428571Y-15154280D01*
X128095238Y-15535233D01*
X128238095Y-15535233D01*
X128333333Y-15582852D01*
X128380952Y-15630471D01*
X128428571Y-15725709D01*
X128428571Y-15963804D01*
X128380952Y-16059042D01*
X128333333Y-16106661D01*
X128238095Y-16154280D01*
X127952380Y-16154280D01*
X127857142Y-16106661D01*
X127809523Y-16059042D01*
X128761904Y-15487614D02*
X129000000Y-16154280D01*
X129238095Y-15487614D01*
X129523809Y-15154280D02*
X130142857Y-15154280D01*
X129809523Y-15535233D01*
X129952380Y-15535233D01*
X130047619Y-15582852D01*
X130095238Y-15630471D01*
X130142857Y-15725709D01*
X130142857Y-15963804D01*
X130095238Y-16059042D01*
X130047619Y-16106661D01*
X129952380Y-16154280D01*
X129666666Y-16154280D01*
X129571428Y-16106661D01*
X129523809Y-16059042D01*
X115761904Y-79952380D02*
X115761904Y-78952380D01*
X116000000Y-78952380D01*
X116142857Y-79000000D01*
X116238095Y-79095238D01*
X116285714Y-79190476D01*
X116333333Y-79380952D01*
X116333333Y-79523809D01*
X116285714Y-79714285D01*
X116238095Y-79809523D01*
X116142857Y-79904761D01*
X116000000Y-79952380D01*
X115761904Y-79952380D01*
X117285714Y-79952380D02*
X116714285Y-79952380D01*
X117000000Y-79952380D02*
X117000000Y-78952380D01*
X116904761Y-79095238D01*
X116809523Y-79190476D01*
X116714285Y-79238095D01*
X132761904Y-79952380D02*
X132761904Y-78952380D01*
X133000000Y-78952380D01*
X133142857Y-79000000D01*
X133238095Y-79095238D01*
X133285714Y-79190476D01*
X133333333Y-79380952D01*
X133333333Y-79523809D01*
X133285714Y-79714285D01*
X133238095Y-79809523D01*
X133142857Y-79904761D01*
X133000000Y-79952380D01*
X132761904Y-79952380D01*
X133714285Y-79047619D02*
X133761904Y-79000000D01*
X133857142Y-78952380D01*
X134095238Y-78952380D01*
X134190476Y-79000000D01*
X134238095Y-79047619D01*
X134285714Y-79142857D01*
X134285714Y-79238095D01*
X134238095Y-79380952D01*
X133666666Y-79952380D01*
X134285714Y-79952380D01*
X149761904Y-79952380D02*
X149761904Y-78952380D01*
X150000000Y-78952380D01*
X150142857Y-79000000D01*
X150238095Y-79095238D01*
X150285714Y-79190476D01*
X150333333Y-79380952D01*
X150333333Y-79523809D01*
X150285714Y-79714285D01*
X150238095Y-79809523D01*
X150142857Y-79904761D01*
X150000000Y-79952380D01*
X149761904Y-79952380D01*
X150666666Y-78952380D02*
X151285714Y-78952380D01*
X150952380Y-79333333D01*
X151095238Y-79333333D01*
X151190476Y-79380952D01*
X151238095Y-79428571D01*
X151285714Y-79523809D01*
X151285714Y-79761904D01*
X151238095Y-79857142D01*
X151190476Y-79904761D01*
X151095238Y-79952380D01*
X150809523Y-79952380D01*
X150714285Y-79904761D01*
X150666666Y-79857142D01*
X166761904Y-79952380D02*
X166761904Y-78952380D01*
X167000000Y-78952380D01*
X167142857Y-79000000D01*
X167238095Y-79095238D01*
X167285714Y-79190476D01*
X167333333Y-79380952D01*
X167333333Y-79523809D01*
X167285714Y-79714285D01*
X167238095Y-79809523D01*
X167142857Y-79904761D01*
X167000000Y-79952380D01*
X166761904Y-79952380D01*
X168190476Y-79285714D02*
X168190476Y-79952380D01*
X167952380Y-78904761D02*
X167714285Y-79619047D01*
X168333333Y-79619047D01*
X183761904Y-79952380D02*
X183761904Y-78952380D01*
X184000000Y-78952380D01*
X184142857Y-79000000D01*
X184238095Y-79095238D01*
X184285714Y-79190476D01*
X184333333Y-79380952D01*
X184333333Y-79523809D01*
X184285714Y-79714285D01*
X184238095Y-79809523D01*
X184142857Y-79904761D01*
X184000000Y-79952380D01*
X183761904Y-79952380D01*
X185238095Y-78952380D02*
X184761904Y-78952380D01*
X184714285Y-79428571D01*
X184761904Y-79380952D01*
X184857142Y-79333333D01*
X185095238Y-79333333D01*
X185190476Y-79380952D01*
X185238095Y-79428571D01*
X185285714Y-79523809D01*
X185285714Y-79761904D01*
X185238095Y-79857142D01*
X185190476Y-79904761D01*
X185095238Y-79952380D01*
X184857142Y-79952380D01*
X184761904Y-79904761D01*
X184714285Y-79857142D01*
X200761904Y-79952380D02*
X200761904Y-78952380D01*
X201000000Y-78952380D01*
X201142857Y-79000000D01*
X201238095Y-79095238D01*
X201285714Y-79190476D01*
X201333333Y-79380952D01*
X201333333Y-79523809D01*
X201285714Y-79714285D01*
X201238095Y-79809523D01*
X201142857Y-79904761D01*
X201000000Y-79952380D01*
X200761904Y-79952380D01*
X202190476Y-78952380D02*
X202000000Y-78952380D01*
X201904761Y-79000000D01*
X201857142Y-79047619D01*
X201761904Y-79190476D01*
X201714285Y-79380952D01*
X201714285Y-79761904D01*
X201761904Y-79857142D01*
X201809523Y-79904761D01*
X201904761Y-79952380D01*
X202095238Y-79952380D01*
X202190476Y-79904761D01*
X202238095Y-79857142D01*
X202285714Y-79761904D01*
X202285714Y-79523809D01*
X202238095Y-79428571D01*
X202190476Y-79380952D01*
X202095238Y-79333333D01*
X201904761Y-79333333D01*
X201809523Y-79380952D01*
X201761904Y-79428571D01*
X201714285Y-79523809D01*
X207952380Y-70238095D02*
X206952380Y-70238095D01*
X206952380Y-70000000D01*
X207000000Y-69857142D01*
X207095238Y-69761904D01*
X207190476Y-69714285D01*
X207380952Y-69666666D01*
X207523809Y-69666666D01*
X207714285Y-69714285D01*
X207809523Y-69761904D01*
X207904761Y-69857142D01*
X207952380Y-70000000D01*
X207952380Y-70238095D01*
X206952380Y-69333333D02*
X206952380Y-68666666D01*
X207952380Y-69095238D01*
X207952380Y-53238095D02*
X206952380Y-53238095D01*
X206952380Y-53000000D01*
X207000000Y-52857142D01*
X207095238Y-52761904D01*
X207190476Y-52714285D01*
X207380952Y-52666666D01*
X207523809Y-52666666D01*
X207714285Y-52714285D01*
X207809523Y-52761904D01*
X207904761Y-52857142D01*
X207952380Y-53000000D01*
X207952380Y-53238095D01*
X207380952Y-52095238D02*
X207333333Y-52190476D01*
X207285714Y-52238095D01*
X207190476Y-52285714D01*
X207142857Y-52285714D01*
X207047619Y-52238095D01*
X207000000Y-52190476D01*
X206952380Y-52095238D01*
X206952380Y-51904761D01*
X207000000Y-51809523D01*
X207047619Y-51761904D01*
X207142857Y-51714285D01*
X207190476Y-51714285D01*
X207285714Y-51761904D01*
X207333333Y-51809523D01*
X207380952Y-51904761D01*
X207380952Y-52095238D01*
X207428571Y-52190476D01*
X207476190Y-52238095D01*
X207571428Y-52285714D01*
X207761904Y-52285714D01*
X207857142Y-52238095D01*
X207904761Y-52190476D01*
X207952380Y-52095238D01*
X207952380Y-51904761D01*
X207904761Y-51809523D01*
X207857142Y-51761904D01*
X207761904Y-51714285D01*
X207571428Y-51714285D01*
X207476190Y-51761904D01*
X207428571Y-51809523D01*
X207380952Y-51904761D01*
X207952380Y-36238095D02*
X206952380Y-36238095D01*
X206952380Y-36000000D01*
X207000000Y-35857142D01*
X207095238Y-35761904D01*
X207190476Y-35714285D01*
X207380952Y-35666666D01*
X207523809Y-35666666D01*
X207714285Y-35714285D01*
X207809523Y-35761904D01*
X207904761Y-35857142D01*
X207952380Y-36000000D01*
X207952380Y-36238095D01*
X207952380Y-35190476D02*
X207952380Y-35000000D01*
X207904761Y-34904761D01*
X207857142Y-34857142D01*
X207714285Y-34761904D01*
X207523809Y-34714285D01*
X207142857Y-34714285D01*
X207047619Y-34761904D01*
X207000000Y-34809523D01*
X206952380Y-34904761D01*
X206952380Y-35095238D01*
X207000000Y-35190476D01*
X207047619Y-35238095D01*
X207142857Y-35285714D01*
X207380952Y-35285714D01*
X207476190Y-35238095D01*
X207523809Y-35190476D01*
X207571428Y-35095238D01*
X207571428Y-34904761D01*
X207523809Y-34809523D01*
X207476190Y-34761904D01*
X207380952Y-34714285D01*
X207952380Y-19714285D02*
X206952380Y-19714285D01*
X206952380Y-19476190D01*
X207000000Y-19333333D01*
X207095238Y-19238095D01*
X207190476Y-19190476D01*
X207380952Y-19142857D01*
X207523809Y-19142857D01*
X207714285Y-19190476D01*
X207809523Y-19238095D01*
X207904761Y-19333333D01*
X207952380Y-19476190D01*
X207952380Y-19714285D01*
X207952380Y-18190476D02*
X207952380Y-18761904D01*
X207952380Y-18476190D02*
X206952380Y-18476190D01*
X207095238Y-18571428D01*
X207190476Y-18666666D01*
X207238095Y-18761904D01*
X206952380Y-17571428D02*
X206952380Y-17476190D01*
X207000000Y-17380952D01*
X207047619Y-17333333D01*
X207142857Y-17285714D01*
X207333333Y-17238095D01*
X207571428Y-17238095D01*
X207761904Y-17285714D01*
X207857142Y-17333333D01*
X207904761Y-17380952D01*
X207952380Y-17476190D01*
X207952380Y-17571428D01*
X207904761Y-17666666D01*
X207857142Y-17714285D01*
X207761904Y-17761904D01*
X207571428Y-17809523D01*
X207333333Y-17809523D01*
X207142857Y-17761904D01*
X207047619Y-17714285D01*
X207000000Y-17666666D01*
X206952380Y-17571428D01*
X200285714Y-8952380D02*
X200285714Y-7952380D01*
X200523809Y-7952380D01*
X200666666Y-8000000D01*
X200761904Y-8095238D01*
X200809523Y-8190476D01*
X200857142Y-8380952D01*
X200857142Y-8523809D01*
X200809523Y-8714285D01*
X200761904Y-8809523D01*
X200666666Y-8904761D01*
X200523809Y-8952380D01*
X200285714Y-8952380D01*
X201809523Y-8952380D02*
X201238095Y-8952380D01*
X201523809Y-8952380D02*
X201523809Y-7952380D01*
X201428571Y-8095238D01*
X201333333Y-8190476D01*
X201238095Y-8238095D01*
X202761904Y-8952380D02*
X202190476Y-8952380D01*
X202476190Y-8952380D02*
X202476190Y-7952380D01*
X202380952Y-8095238D01*
X202285714Y-8190476D01*
X202190476Y-8238095D01*
X183285714Y-8952380D02*
X183285714Y-7952380D01*
X183523809Y-7952380D01*
X183666666Y-8000000D01*
X183761904Y-8095238D01*
X183809523Y-8190476D01*
X183857142Y-8380952D01*
X183857142Y-8523809D01*
X183809523Y-8714285D01*
X183761904Y-8809523D01*
X183666666Y-8904761D01*
X183523809Y-8952380D01*
X183285714Y-8952380D01*
X184809523Y-8952380D02*
X184238095Y-8952380D01*
X184523809Y-8952380D02*
X184523809Y-7952380D01*
X184428571Y-8095238D01*
X184333333Y-8190476D01*
X184238095Y-8238095D01*
X185190476Y-8047619D02*
X185238095Y-8000000D01*
X185333333Y-7952380D01*
X185571428Y-7952380D01*
X185666666Y-8000000D01*
X185714285Y-8047619D01*
X185761904Y-8142857D01*
X185761904Y-8238095D01*
X185714285Y-8380952D01*
X185142857Y-8952380D01*
X185761904Y-8952380D01*
X166285714Y-8952380D02*
X166285714Y-7952380D01*
X166523809Y-7952380D01*
X166666666Y-8000000D01*
X166761904Y-8095238D01*
X166809523Y-8190476D01*
X166857142Y-8380952D01*
X166857142Y-8523809D01*
X166809523Y-8714285D01*
X166761904Y-8809523D01*
X166666666Y-8904761D01*
X166523809Y-8952380D01*
X166285714Y-8952380D01*
X167809523Y-8952380D02*
X167238095Y-8952380D01*
X167523809Y-8952380D02*
X167523809Y-7952380D01*
X167428571Y-8095238D01*
X167333333Y-8190476D01*
X167238095Y-8238095D01*
X168142857Y-7952380D02*
X168761904Y-7952380D01*
X168428571Y-8333333D01*
X168571428Y-8333333D01*
X168666666Y-8380952D01*
X168714285Y-8428571D01*
X168761904Y-8523809D01*
X168761904Y-8761904D01*
X168714285Y-8857142D01*
X168666666Y-8904761D01*
X168571428Y-8952380D01*
X168285714Y-8952380D01*
X168190476Y-8904761D01*
X168142857Y-8857142D01*
X149285714Y-8952380D02*
X149285714Y-7952380D01*
X149523809Y-7952380D01*
X149666666Y-8000000D01*
X149761904Y-8095238D01*
X149809523Y-8190476D01*
X149857142Y-8380952D01*
X149857142Y-8523809D01*
X149809523Y-8714285D01*
X149761904Y-8809523D01*
X149666666Y-8904761D01*
X149523809Y-8952380D01*
X149285714Y-8952380D01*
X150809523Y-8952380D02*
X150238095Y-8952380D01*
X150523809Y-8952380D02*
X150523809Y-7952380D01*
X150428571Y-8095238D01*
X150333333Y-8190476D01*
X150238095Y-8238095D01*
X151666666Y-8285714D02*
X151666666Y-8952380D01*
X151428571Y-7904761D02*
X151190476Y-8619047D01*
X151809523Y-8619047D01*
X132285714Y-8952380D02*
X132285714Y-7952380D01*
X132523809Y-7952380D01*
X132666666Y-8000000D01*
X132761904Y-8095238D01*
X132809523Y-8190476D01*
X132857142Y-8380952D01*
X132857142Y-8523809D01*
X132809523Y-8714285D01*
X132761904Y-8809523D01*
X132666666Y-8904761D01*
X132523809Y-8952380D01*
X132285714Y-8952380D01*
X133809523Y-8952380D02*
X133238095Y-8952380D01*
X133523809Y-8952380D02*
X133523809Y-7952380D01*
X133428571Y-8095238D01*
X133333333Y-8190476D01*
X133238095Y-8238095D01*
X134714285Y-7952380D02*
X134238095Y-7952380D01*
X134190476Y-8428571D01*
X134238095Y-8380952D01*
X134333333Y-8333333D01*
X134571428Y-8333333D01*
X134666666Y-8380952D01*
X134714285Y-8428571D01*
X134761904Y-8523809D01*
X134761904Y-8761904D01*
X134714285Y-8857142D01*
X134666666Y-8904761D01*
X134571428Y-8952380D01*
X134333333Y-8952380D01*
X134238095Y-8904761D01*
X134190476Y-8857142D01*
X115285714Y-8952380D02*
X115285714Y-7952380D01*
X115523809Y-7952380D01*
X115666666Y-8000000D01*
X115761904Y-8095238D01*
X115809523Y-8190476D01*
X115857142Y-8380952D01*
X115857142Y-8523809D01*
X115809523Y-8714285D01*
X115761904Y-8809523D01*
X115666666Y-8904761D01*
X115523809Y-8952380D01*
X115285714Y-8952380D01*
X116809523Y-8952380D02*
X116238095Y-8952380D01*
X116523809Y-8952380D02*
X116523809Y-7952380D01*
X116428571Y-8095238D01*
X116333333Y-8190476D01*
X116238095Y-8238095D01*
X117666666Y-7952380D02*
X117476190Y-7952380D01*
X117380952Y-8000000D01*
X117333333Y-8047619D01*
X117238095Y-8190476D01*
X117190476Y-8380952D01*
X117190476Y-8761904D01*
X117238095Y-8857142D01*
X117285714Y-8904761D01*
X117380952Y-8952380D01*
X117571428Y-8952380D01*
X117666666Y-8904761D01*
X117714285Y-8857142D01*
X117761904Y-8761904D01*
X117761904Y-8523809D01*
X117714285Y-8428571D01*
X117666666Y-8380952D01*
X117571428Y-8333333D01*
X117380952Y-8333333D01*
X117285714Y-8380952D01*
X117238095Y-8428571D01*
X117190476Y-8523809D01*
X98285714Y-8952380D02*
X98285714Y-7952380D01*
X98523809Y-7952380D01*
X98666666Y-8000000D01*
X98761904Y-8095238D01*
X98809523Y-8190476D01*
X98857142Y-8380952D01*
X98857142Y-8523809D01*
X98809523Y-8714285D01*
X98761904Y-8809523D01*
X98666666Y-8904761D01*
X98523809Y-8952380D01*
X98285714Y-8952380D01*
X99809523Y-8952380D02*
X99238095Y-8952380D01*
X99523809Y-8952380D02*
X99523809Y-7952380D01*
X99428571Y-8095238D01*
X99333333Y-8190476D01*
X99238095Y-8238095D01*
X100142857Y-7952380D02*
X100809523Y-7952380D01*
X100380952Y-8952380D01*
X81285714Y-8952380D02*
X81285714Y-7952380D01*
X81523809Y-7952380D01*
X81666666Y-8000000D01*
X81761904Y-8095238D01*
X81809523Y-8190476D01*
X81857142Y-8380952D01*
X81857142Y-8523809D01*
X81809523Y-8714285D01*
X81761904Y-8809523D01*
X81666666Y-8904761D01*
X81523809Y-8952380D01*
X81285714Y-8952380D01*
X82809523Y-8952380D02*
X82238095Y-8952380D01*
X82523809Y-8952380D02*
X82523809Y-7952380D01*
X82428571Y-8095238D01*
X82333333Y-8190476D01*
X82238095Y-8238095D01*
X83380952Y-8380952D02*
X83285714Y-8333333D01*
X83238095Y-8285714D01*
X83190476Y-8190476D01*
X83190476Y-8142857D01*
X83238095Y-8047619D01*
X83285714Y-8000000D01*
X83380952Y-7952380D01*
X83571428Y-7952380D01*
X83666666Y-8000000D01*
X83714285Y-8047619D01*
X83761904Y-8142857D01*
X83761904Y-8190476D01*
X83714285Y-8285714D01*
X83666666Y-8333333D01*
X83571428Y-8380952D01*
X83380952Y-8380952D01*
X83285714Y-8428571D01*
X83238095Y-8476190D01*
X83190476Y-8571428D01*
X83190476Y-8761904D01*
X83238095Y-8857142D01*
X83285714Y-8904761D01*
X83380952Y-8952380D01*
X83571428Y-8952380D01*
X83666666Y-8904761D01*
X83714285Y-8857142D01*
X83761904Y-8761904D01*
X83761904Y-8571428D01*
X83714285Y-8476190D01*
X83666666Y-8428571D01*
X83571428Y-8380952D01*
X64285714Y-8952380D02*
X64285714Y-7952380D01*
X64523809Y-7952380D01*
X64666666Y-8000000D01*
X64761904Y-8095238D01*
X64809523Y-8190476D01*
X64857142Y-8380952D01*
X64857142Y-8523809D01*
X64809523Y-8714285D01*
X64761904Y-8809523D01*
X64666666Y-8904761D01*
X64523809Y-8952380D01*
X64285714Y-8952380D01*
X65809523Y-8952380D02*
X65238095Y-8952380D01*
X65523809Y-8952380D02*
X65523809Y-7952380D01*
X65428571Y-8095238D01*
X65333333Y-8190476D01*
X65238095Y-8238095D01*
X66285714Y-8952380D02*
X66476190Y-8952380D01*
X66571428Y-8904761D01*
X66619047Y-8857142D01*
X66714285Y-8714285D01*
X66761904Y-8523809D01*
X66761904Y-8142857D01*
X66714285Y-8047619D01*
X66666666Y-8000000D01*
X66571428Y-7952380D01*
X66380952Y-7952380D01*
X66285714Y-8000000D01*
X66238095Y-8047619D01*
X66190476Y-8142857D01*
X66190476Y-8380952D01*
X66238095Y-8476190D01*
X66285714Y-8523809D01*
X66380952Y-8571428D01*
X66571428Y-8571428D01*
X66666666Y-8523809D01*
X66714285Y-8476190D01*
X66761904Y-8380952D01*
X47285714Y-8952380D02*
X47285714Y-7952380D01*
X47523809Y-7952380D01*
X47666666Y-8000000D01*
X47761904Y-8095238D01*
X47809523Y-8190476D01*
X47857142Y-8380952D01*
X47857142Y-8523809D01*
X47809523Y-8714285D01*
X47761904Y-8809523D01*
X47666666Y-8904761D01*
X47523809Y-8952380D01*
X47285714Y-8952380D01*
X48238095Y-8047619D02*
X48285714Y-8000000D01*
X48380952Y-7952380D01*
X48619047Y-7952380D01*
X48714285Y-8000000D01*
X48761904Y-8047619D01*
X48809523Y-8142857D01*
X48809523Y-8238095D01*
X48761904Y-8380952D01*
X48190476Y-8952380D01*
X48809523Y-8952380D01*
X49428571Y-7952380D02*
X49523809Y-7952380D01*
X49619047Y-8000000D01*
X49666666Y-8047619D01*
X49714285Y-8142857D01*
X49761904Y-8333333D01*
X49761904Y-8571428D01*
X49714285Y-8761904D01*
X49666666Y-8857142D01*
X49619047Y-8904761D01*
X49523809Y-8952380D01*
X49428571Y-8952380D01*
X49333333Y-8904761D01*
X49285714Y-8857142D01*
X49238095Y-8761904D01*
X49190476Y-8571428D01*
X49190476Y-8333333D01*
X49238095Y-8142857D01*
X49285714Y-8047619D01*
X49333333Y-8000000D01*
X49428571Y-7952380D01*
X30285714Y-8952380D02*
X30285714Y-7952380D01*
X30523809Y-7952380D01*
X30666666Y-8000000D01*
X30761904Y-8095238D01*
X30809523Y-8190476D01*
X30857142Y-8380952D01*
X30857142Y-8523809D01*
X30809523Y-8714285D01*
X30761904Y-8809523D01*
X30666666Y-8904761D01*
X30523809Y-8952380D01*
X30285714Y-8952380D01*
X31238095Y-8047619D02*
X31285714Y-8000000D01*
X31380952Y-7952380D01*
X31619047Y-7952380D01*
X31714285Y-8000000D01*
X31761904Y-8047619D01*
X31809523Y-8142857D01*
X31809523Y-8238095D01*
X31761904Y-8380952D01*
X31190476Y-8952380D01*
X31809523Y-8952380D01*
X32761904Y-8952380D02*
X32190476Y-8952380D01*
X32476190Y-8952380D02*
X32476190Y-7952380D01*
X32380952Y-8095238D01*
X32285714Y-8190476D01*
X32190476Y-8238095D01*
X13285714Y-8952380D02*
X13285714Y-7952380D01*
X13523809Y-7952380D01*
X13666666Y-8000000D01*
X13761904Y-8095238D01*
X13809523Y-8190476D01*
X13857142Y-8380952D01*
X13857142Y-8523809D01*
X13809523Y-8714285D01*
X13761904Y-8809523D01*
X13666666Y-8904761D01*
X13523809Y-8952380D01*
X13285714Y-8952380D01*
X14238095Y-8047619D02*
X14285714Y-8000000D01*
X14380952Y-7952380D01*
X14619047Y-7952380D01*
X14714285Y-8000000D01*
X14761904Y-8047619D01*
X14809523Y-8142857D01*
X14809523Y-8238095D01*
X14761904Y-8380952D01*
X14190476Y-8952380D01*
X14809523Y-8952380D01*
X15190476Y-8047619D02*
X15238095Y-8000000D01*
X15333333Y-7952380D01*
X15571428Y-7952380D01*
X15666666Y-8000000D01*
X15714285Y-8047619D01*
X15761904Y-8142857D01*
X15761904Y-8238095D01*
X15714285Y-8380952D01*
X15142857Y-8952380D01*
X15761904Y-8952380D01*
X8952380Y-19714285D02*
X7952380Y-19714285D01*
X7952380Y-19476190D01*
X8000000Y-19333333D01*
X8095238Y-19238095D01*
X8190476Y-19190476D01*
X8380952Y-19142857D01*
X8523809Y-19142857D01*
X8714285Y-19190476D01*
X8809523Y-19238095D01*
X8904761Y-19333333D01*
X8952380Y-19476190D01*
X8952380Y-19714285D01*
X8047619Y-18761904D02*
X8000000Y-18714285D01*
X7952380Y-18619047D01*
X7952380Y-18380952D01*
X8000000Y-18285714D01*
X8047619Y-18238095D01*
X8142857Y-18190476D01*
X8238095Y-18190476D01*
X8380952Y-18238095D01*
X8952380Y-18809523D01*
X8952380Y-18190476D01*
X7952380Y-17857142D02*
X7952380Y-17238095D01*
X8333333Y-17571428D01*
X8333333Y-17428571D01*
X8380952Y-17333333D01*
X8428571Y-17285714D01*
X8523809Y-17238095D01*
X8761904Y-17238095D01*
X8857142Y-17285714D01*
X8904761Y-17333333D01*
X8952380Y-17428571D01*
X8952380Y-17714285D01*
X8904761Y-17809523D01*
X8857142Y-17857142D01*
X8952380Y-36714285D02*
X7952380Y-36714285D01*
X7952380Y-36476190D01*
X8000000Y-36333333D01*
X8095238Y-36238095D01*
X8190476Y-36190476D01*
X8380952Y-36142857D01*
X8523809Y-36142857D01*
X8714285Y-36190476D01*
X8809523Y-36238095D01*
X8904761Y-36333333D01*
X8952380Y-36476190D01*
X8952380Y-36714285D01*
X8047619Y-35761904D02*
X8000000Y-35714285D01*
X7952380Y-35619047D01*
X7952380Y-35380952D01*
X8000000Y-35285714D01*
X8047619Y-35238095D01*
X8142857Y-35190476D01*
X8238095Y-35190476D01*
X8380952Y-35238095D01*
X8952380Y-35809523D01*
X8952380Y-35190476D01*
X8285714Y-34333333D02*
X8952380Y-34333333D01*
X7904761Y-34571428D02*
X8619047Y-34809523D01*
X8619047Y-34190476D01*
X8952380Y-53714285D02*
X7952380Y-53714285D01*
X7952380Y-53476190D01*
X8000000Y-53333333D01*
X8095238Y-53238095D01*
X8190476Y-53190476D01*
X8380952Y-53142857D01*
X8523809Y-53142857D01*
X8714285Y-53190476D01*
X8809523Y-53238095D01*
X8904761Y-53333333D01*
X8952380Y-53476190D01*
X8952380Y-53714285D01*
X8047619Y-52761904D02*
X8000000Y-52714285D01*
X7952380Y-52619047D01*
X7952380Y-52380952D01*
X8000000Y-52285714D01*
X8047619Y-52238095D01*
X8142857Y-52190476D01*
X8238095Y-52190476D01*
X8380952Y-52238095D01*
X8952380Y-52809523D01*
X8952380Y-52190476D01*
X7952380Y-51285714D02*
X7952380Y-51761904D01*
X8428571Y-51809523D01*
X8380952Y-51761904D01*
X8333333Y-51666666D01*
X8333333Y-51428571D01*
X8380952Y-51333333D01*
X8428571Y-51285714D01*
X8523809Y-51238095D01*
X8761904Y-51238095D01*
X8857142Y-51285714D01*
X8904761Y-51333333D01*
X8952380Y-51428571D01*
X8952380Y-51666666D01*
X8904761Y-51761904D01*
X8857142Y-51809523D01*
X8952380Y-70714285D02*
X7952380Y-70714285D01*
X7952380Y-70476190D01*
X8000000Y-70333333D01*
X8095238Y-70238095D01*
X8190476Y-70190476D01*
X8380952Y-70142857D01*
X8523809Y-70142857D01*
X8714285Y-70190476D01*
X8809523Y-70238095D01*
X8904761Y-70333333D01*
X8952380Y-70476190D01*
X8952380Y-70714285D01*
X8047619Y-69761904D02*
X8000000Y-69714285D01*
X7952380Y-69619047D01*
X7952380Y-69380952D01*
X8000000Y-69285714D01*
X8047619Y-69238095D01*
X8142857Y-69190476D01*
X8238095Y-69190476D01*
X8380952Y-69238095D01*
X8952380Y-69809523D01*
X8952380Y-69190476D01*
X7952380Y-68333333D02*
X7952380Y-68523809D01*
X8000000Y-68619047D01*
X8047619Y-68666666D01*
X8190476Y-68761904D01*
X8380952Y-68809523D01*
X8761904Y-68809523D01*
X8857142Y-68761904D01*
X8904761Y-68714285D01*
X8952380Y-68619047D01*
X8952380Y-68428571D01*
X8904761Y-68333333D01*
X8857142Y-68285714D01*
X8761904Y-68238095D01*
X8523809Y-68238095D01*
X8428571Y-68285714D01*
X8380952Y-68333333D01*
X8333333Y-68428571D01*
X8333333Y-68619047D01*
X8380952Y-68714285D01*
X8428571Y-68761904D01*
X8523809Y-68809523D01*
X13285714Y-79952380D02*
X13285714Y-78952380D01*
X13523809Y-78952380D01*
X13666666Y-79000000D01*
X13761904Y-79095238D01*
X13809523Y-79190476D01*
X13857142Y-79380952D01*
X13857142Y-79523809D01*
X13809523Y-79714285D01*
X13761904Y-79809523D01*
X13666666Y-79904761D01*
X13523809Y-79952380D01*
X13285714Y-79952380D01*
X14238095Y-79047619D02*
X14285714Y-79000000D01*
X14380952Y-78952380D01*
X14619047Y-78952380D01*
X14714285Y-79000000D01*
X14761904Y-79047619D01*
X14809523Y-79142857D01*
X14809523Y-79238095D01*
X14761904Y-79380952D01*
X14190476Y-79952380D01*
X14809523Y-79952380D01*
X15142857Y-78952380D02*
X15809523Y-78952380D01*
X15380952Y-79952380D01*
X30285714Y-79952380D02*
X30285714Y-78952380D01*
X30523809Y-78952380D01*
X30666666Y-79000000D01*
X30761904Y-79095238D01*
X30809523Y-79190476D01*
X30857142Y-79380952D01*
X30857142Y-79523809D01*
X30809523Y-79714285D01*
X30761904Y-79809523D01*
X30666666Y-79904761D01*
X30523809Y-79952380D01*
X30285714Y-79952380D01*
X31238095Y-79047619D02*
X31285714Y-79000000D01*
X31380952Y-78952380D01*
X31619047Y-78952380D01*
X31714285Y-79000000D01*
X31761904Y-79047619D01*
X31809523Y-79142857D01*
X31809523Y-79238095D01*
X31761904Y-79380952D01*
X31190476Y-79952380D01*
X31809523Y-79952380D01*
X32380952Y-79380952D02*
X32285714Y-79333333D01*
X32238095Y-79285714D01*
X32190476Y-79190476D01*
X32190476Y-79142857D01*
X32238095Y-79047619D01*
X32285714Y-79000000D01*
X32380952Y-78952380D01*
X32571428Y-78952380D01*
X32666666Y-79000000D01*
X32714285Y-79047619D01*
X32761904Y-79142857D01*
X32761904Y-79190476D01*
X32714285Y-79285714D01*
X32666666Y-79333333D01*
X32571428Y-79380952D01*
X32380952Y-79380952D01*
X32285714Y-79428571D01*
X32238095Y-79476190D01*
X32190476Y-79571428D01*
X32190476Y-79761904D01*
X32238095Y-79857142D01*
X32285714Y-79904761D01*
X32380952Y-79952380D01*
X32571428Y-79952380D01*
X32666666Y-79904761D01*
X32714285Y-79857142D01*
X32761904Y-79761904D01*
X32761904Y-79571428D01*
X32714285Y-79476190D01*
X32666666Y-79428571D01*
X32571428Y-79380952D01*
X47285714Y-79952380D02*
X47285714Y-78952380D01*
X47523809Y-78952380D01*
X47666666Y-79000000D01*
X47761904Y-79095238D01*
X47809523Y-79190476D01*
X47857142Y-79380952D01*
X47857142Y-79523809D01*
X47809523Y-79714285D01*
X47761904Y-79809523D01*
X47666666Y-79904761D01*
X47523809Y-79952380D01*
X47285714Y-79952380D01*
X48238095Y-79047619D02*
X48285714Y-79000000D01*
X48380952Y-78952380D01*
X48619047Y-78952380D01*
X48714285Y-79000000D01*
X48761904Y-79047619D01*
X48809523Y-79142857D01*
X48809523Y-79238095D01*
X48761904Y-79380952D01*
X48190476Y-79952380D01*
X48809523Y-79952380D01*
X49285714Y-79952380D02*
X49476190Y-79952380D01*
X49571428Y-79904761D01*
X49619047Y-79857142D01*
X49714285Y-79714285D01*
X49761904Y-79523809D01*
X49761904Y-79142857D01*
X49714285Y-79047619D01*
X49666666Y-79000000D01*
X49571428Y-78952380D01*
X49380952Y-78952380D01*
X49285714Y-79000000D01*
X49238095Y-79047619D01*
X49190476Y-79142857D01*
X49190476Y-79380952D01*
X49238095Y-79476190D01*
X49285714Y-79523809D01*
X49380952Y-79571428D01*
X49571428Y-79571428D01*
X49666666Y-79523809D01*
X49714285Y-79476190D01*
X49761904Y-79380952D01*
X64285714Y-79952380D02*
X64285714Y-78952380D01*
X64523809Y-78952380D01*
X64666666Y-79000000D01*
X64761904Y-79095238D01*
X64809523Y-79190476D01*
X64857142Y-79380952D01*
X64857142Y-79523809D01*
X64809523Y-79714285D01*
X64761904Y-79809523D01*
X64666666Y-79904761D01*
X64523809Y-79952380D01*
X64285714Y-79952380D01*
X65190476Y-78952380D02*
X65809523Y-78952380D01*
X65476190Y-79333333D01*
X65619047Y-79333333D01*
X65714285Y-79380952D01*
X65761904Y-79428571D01*
X65809523Y-79523809D01*
X65809523Y-79761904D01*
X65761904Y-79857142D01*
X65714285Y-79904761D01*
X65619047Y-79952380D01*
X65333333Y-79952380D01*
X65238095Y-79904761D01*
X65190476Y-79857142D01*
X66428571Y-78952380D02*
X66523809Y-78952380D01*
X66619047Y-79000000D01*
X66666666Y-79047619D01*
X66714285Y-79142857D01*
X66761904Y-79333333D01*
X66761904Y-79571428D01*
X66714285Y-79761904D01*
X66666666Y-79857142D01*
X66619047Y-79904761D01*
X66523809Y-79952380D01*
X66428571Y-79952380D01*
X66333333Y-79904761D01*
X66285714Y-79857142D01*
X66238095Y-79761904D01*
X66190476Y-79571428D01*
X66190476Y-79333333D01*
X66238095Y-79142857D01*
X66285714Y-79047619D01*
X66333333Y-79000000D01*
X66428571Y-78952380D01*
X81285714Y-79952380D02*
X81285714Y-78952380D01*
X81523809Y-78952380D01*
X81666666Y-79000000D01*
X81761904Y-79095238D01*
X81809523Y-79190476D01*
X81857142Y-79380952D01*
X81857142Y-79523809D01*
X81809523Y-79714285D01*
X81761904Y-79809523D01*
X81666666Y-79904761D01*
X81523809Y-79952380D01*
X81285714Y-79952380D01*
X82190476Y-78952380D02*
X82809523Y-78952380D01*
X82476190Y-79333333D01*
X82619047Y-79333333D01*
X82714285Y-79380952D01*
X82761904Y-79428571D01*
X82809523Y-79523809D01*
X82809523Y-79761904D01*
X82761904Y-79857142D01*
X82714285Y-79904761D01*
X82619047Y-79952380D01*
X82333333Y-79952380D01*
X82238095Y-79904761D01*
X82190476Y-79857142D01*
X83761904Y-79952380D02*
X83190476Y-79952380D01*
X83476190Y-79952380D02*
X83476190Y-78952380D01*
X83380952Y-79095238D01*
X83285714Y-79190476D01*
X83190476Y-79238095D01*
X98285714Y-79952380D02*
X98285714Y-78952380D01*
X98523809Y-78952380D01*
X98666666Y-79000000D01*
X98761904Y-79095238D01*
X98809523Y-79190476D01*
X98857142Y-79380952D01*
X98857142Y-79523809D01*
X98809523Y-79714285D01*
X98761904Y-79809523D01*
X98666666Y-79904761D01*
X98523809Y-79952380D01*
X98285714Y-79952380D01*
X99190476Y-78952380D02*
X99809523Y-78952380D01*
X99476190Y-79333333D01*
X99619047Y-79333333D01*
X99714285Y-79380952D01*
X99761904Y-79428571D01*
X99809523Y-79523809D01*
X99809523Y-79761904D01*
X99761904Y-79857142D01*
X99714285Y-79904761D01*
X99619047Y-79952380D01*
X99333333Y-79952380D01*
X99238095Y-79904761D01*
X99190476Y-79857142D01*
X100190476Y-79047619D02*
X100238095Y-79000000D01*
X100333333Y-78952380D01*
X100571428Y-78952380D01*
X100666666Y-79000000D01*
X100714285Y-79047619D01*
X100761904Y-79142857D01*
X100761904Y-79238095D01*
X100714285Y-79380952D01*
X100142857Y-79952380D01*
X100761904Y-79952380D01*
D15*
X111052404Y-63244564D02*
X111052404Y-64054859D01*
X111100068Y-64150188D01*
X111147733Y-64197852D01*
X111243061Y-64245517D01*
X111433719Y-64245517D01*
X111529048Y-64197852D01*
X111576712Y-64150188D01*
X111624377Y-64054859D01*
X111624377Y-63244564D01*
X112530001Y-63578215D02*
X112530001Y-64245517D01*
X112291679Y-63196899D02*
X112053357Y-63911866D01*
X112672994Y-63911866D01*
M02*
