G04 #@! TF.GenerationSoftware,KiCad,Pcbnew,(5.1.5-0-10_14)*
G04 #@! TF.CreationDate,2020-01-24T22:17:13-08:00*
G04 #@! TF.ProjectId,esp32-color-lamp-stand,65737033-322d-4636-9f6c-6f722d6c616d,rev?*
G04 #@! TF.SameCoordinates,Original*
G04 #@! TF.FileFunction,Copper,L2,Bot*
G04 #@! TF.FilePolarity,Positive*
%FSLAX46Y46*%
G04 Gerber Fmt 4.6, Leading zero omitted, Abs format (unit mm)*
G04 Created by KiCad (PCBNEW (5.1.5-0-10_14)) date 2020-01-24 22:17:13*
%MOMM*%
%LPD*%
G04 APERTURE LIST*
%ADD10C,1.400000*%
%ADD11C,0.800000*%
%ADD12C,0.508000*%
%ADD13C,0.254000*%
G04 APERTURE END LIST*
D10*
X84898000Y-39870000D03*
X84898000Y-48130000D03*
X78948000Y-48490000D03*
X78948000Y-39510000D03*
D11*
X113449100Y-31584900D03*
X108419900Y-31534100D03*
X196500000Y-3300000D03*
X179500000Y-3300000D03*
X162500000Y-3300000D03*
X145500000Y-3300000D03*
X128280300Y-3300000D03*
X111280300Y-3300000D03*
X94500000Y-3300000D03*
X77500000Y-3300000D03*
X60500000Y-3300000D03*
X43500000Y-3300000D03*
X26500000Y-3300000D03*
X9500000Y-3300000D03*
X3300000Y-23500000D03*
X3300000Y-40500000D03*
X3300000Y-57500000D03*
X3300000Y-74500000D03*
X19500000Y-84700000D03*
X36500000Y-84700000D03*
X70500000Y-84700000D03*
X53500000Y-84700000D03*
X87500000Y-84700000D03*
X104500000Y-84700000D03*
X125006100Y-21907500D03*
X212700000Y-47500000D03*
X212700000Y-30500000D03*
X212700000Y-13500000D03*
X212700000Y-64500000D03*
X111544100Y-63144400D03*
X138500000Y-84700000D03*
X155500000Y-84700000D03*
X172500000Y-84700000D03*
X189500000Y-84700000D03*
X206500000Y-84700000D03*
X121500000Y-84700000D03*
X89268300Y-45250100D03*
X88265000Y-36487100D03*
X88379300Y-41465500D03*
X110159800Y-68935600D03*
X107924600Y-68884800D03*
X116255800Y-44056300D03*
X109969300Y-56113127D03*
X113360200Y-43675300D03*
X113563400Y-55295800D03*
X108926490Y-56840137D03*
X82334100Y-50330100D03*
X88442800Y-50330100D03*
X88450115Y-43750000D03*
X101434900Y-48920400D03*
X101434900Y-40817800D03*
X100190300Y-48945800D03*
X100190300Y-42100500D03*
D12*
X113398300Y-31534100D02*
X113449100Y-31584900D01*
X108419900Y-31534100D02*
X113398300Y-31534100D01*
D13*
X107975400Y-68935600D02*
X107924600Y-68884800D01*
X110159800Y-68935600D02*
X107975400Y-68935600D01*
X114465100Y-45847000D02*
X116255800Y-44056300D01*
X114465100Y-51617327D02*
X114465100Y-45847000D01*
X109969300Y-56113127D02*
X114465100Y-51617327D01*
X108926490Y-56274452D02*
X108926490Y-56840137D01*
X113360200Y-43675300D02*
X108926490Y-48109010D01*
X108926490Y-48109010D02*
X108926490Y-56274452D01*
X113563400Y-55295800D02*
X112019063Y-56840137D01*
X112019063Y-56840137D02*
X108926490Y-56840137D01*
X88442800Y-43757315D02*
X88450115Y-43750000D01*
X88442800Y-50330100D02*
X88442800Y-43757315D01*
X101434900Y-41198800D02*
X101434900Y-48920400D01*
X101434900Y-40817800D02*
X101434900Y-41198800D01*
X100190300Y-42100500D02*
X100190300Y-48945800D01*
G36*
X210901486Y-808221D02*
G01*
X211780784Y-1019322D01*
X212616221Y-1365372D01*
X213387244Y-1837855D01*
X214074863Y-2425137D01*
X214662144Y-3112755D01*
X215134629Y-3883781D01*
X215480679Y-4719220D01*
X215691779Y-5598514D01*
X215765000Y-6528875D01*
X215765001Y-81971112D01*
X215691779Y-82901486D01*
X215480679Y-83780780D01*
X215134629Y-84616219D01*
X214662144Y-85387245D01*
X214074863Y-86074863D01*
X213387244Y-86662145D01*
X212616221Y-87134628D01*
X211780784Y-87480678D01*
X210901486Y-87691779D01*
X209971124Y-87765000D01*
X6528875Y-87765000D01*
X5598514Y-87691779D01*
X4719220Y-87480679D01*
X3883781Y-87134629D01*
X3112755Y-86662144D01*
X2425137Y-86074863D01*
X1837855Y-85387244D01*
X1365372Y-84616221D01*
X1019322Y-83780784D01*
X808221Y-82901486D01*
X735000Y-81971124D01*
X735000Y-17963896D01*
X14265000Y-17963896D01*
X14265001Y-70536105D01*
X14268229Y-70568875D01*
X14268098Y-70587559D01*
X14269099Y-70597772D01*
X14330300Y-71180062D01*
X14343710Y-71245388D01*
X14356179Y-71310756D01*
X14359143Y-71320572D01*
X14359144Y-71320579D01*
X14359147Y-71320585D01*
X14532282Y-71879894D01*
X14558095Y-71941301D01*
X14583051Y-72003069D01*
X14587869Y-72012130D01*
X14866345Y-72527162D01*
X14903608Y-72582408D01*
X14940074Y-72638133D01*
X14946560Y-72646086D01*
X15319770Y-73097219D01*
X15367060Y-73144180D01*
X15413648Y-73191754D01*
X15421555Y-73198296D01*
X15875283Y-73568348D01*
X15930776Y-73605217D01*
X15985737Y-73642850D01*
X15994764Y-73647731D01*
X16511728Y-73922605D01*
X16573367Y-73948011D01*
X16634548Y-73974233D01*
X16644351Y-73977268D01*
X17204859Y-74146495D01*
X17270251Y-74159443D01*
X17335367Y-74173284D01*
X17345573Y-74174357D01*
X17928276Y-74231492D01*
X17928277Y-74231492D01*
X17963895Y-74235000D01*
X74036105Y-74235000D01*
X74068884Y-74231772D01*
X74087559Y-74231902D01*
X74097772Y-74230901D01*
X74680062Y-74169700D01*
X74745388Y-74156290D01*
X74810756Y-74143821D01*
X74820572Y-74140857D01*
X74820579Y-74140856D01*
X74820585Y-74140853D01*
X75379894Y-73967718D01*
X75441301Y-73941905D01*
X75503069Y-73916949D01*
X75512130Y-73912131D01*
X76027162Y-73633655D01*
X76082408Y-73596392D01*
X76138133Y-73559926D01*
X76146086Y-73553440D01*
X76597219Y-73180230D01*
X76644180Y-73132940D01*
X76691754Y-73086352D01*
X76698296Y-73078445D01*
X77068348Y-72624717D01*
X77105217Y-72569224D01*
X77142850Y-72514263D01*
X77147731Y-72505236D01*
X77422605Y-71988272D01*
X77448011Y-71926633D01*
X77474233Y-71865452D01*
X77477268Y-71855649D01*
X77646495Y-71295141D01*
X77659443Y-71229749D01*
X77673284Y-71164633D01*
X77674357Y-71154427D01*
X77731492Y-70571724D01*
X77731492Y-70571723D01*
X77735000Y-70536105D01*
X77735000Y-68782861D01*
X106889600Y-68782861D01*
X106889600Y-68986739D01*
X106929374Y-69186698D01*
X107007395Y-69375056D01*
X107120663Y-69544574D01*
X107264826Y-69688737D01*
X107434344Y-69802005D01*
X107622702Y-69880026D01*
X107822661Y-69919800D01*
X108026539Y-69919800D01*
X108226498Y-69880026D01*
X108414856Y-69802005D01*
X108571110Y-69697600D01*
X109458089Y-69697600D01*
X109500026Y-69739537D01*
X109669544Y-69852805D01*
X109857902Y-69930826D01*
X110057861Y-69970600D01*
X110261739Y-69970600D01*
X110461698Y-69930826D01*
X110650056Y-69852805D01*
X110819574Y-69739537D01*
X110963737Y-69595374D01*
X111077005Y-69425856D01*
X111155026Y-69237498D01*
X111194800Y-69037539D01*
X111194800Y-68833661D01*
X111155026Y-68633702D01*
X111077005Y-68445344D01*
X110963737Y-68275826D01*
X110819574Y-68131663D01*
X110650056Y-68018395D01*
X110461698Y-67940374D01*
X110261739Y-67900600D01*
X110057861Y-67900600D01*
X109857902Y-67940374D01*
X109669544Y-68018395D01*
X109500026Y-68131663D01*
X109458089Y-68173600D01*
X108677111Y-68173600D01*
X108584374Y-68080863D01*
X108414856Y-67967595D01*
X108226498Y-67889574D01*
X108026539Y-67849800D01*
X107822661Y-67849800D01*
X107622702Y-67889574D01*
X107434344Y-67967595D01*
X107264826Y-68080863D01*
X107120663Y-68225026D01*
X107007395Y-68394544D01*
X106929374Y-68582902D01*
X106889600Y-68782861D01*
X77735000Y-68782861D01*
X77735000Y-56738198D01*
X107891490Y-56738198D01*
X107891490Y-56942076D01*
X107931264Y-57142035D01*
X108009285Y-57330393D01*
X108122553Y-57499911D01*
X108266716Y-57644074D01*
X108436234Y-57757342D01*
X108624592Y-57835363D01*
X108824551Y-57875137D01*
X109028429Y-57875137D01*
X109228388Y-57835363D01*
X109416746Y-57757342D01*
X109586264Y-57644074D01*
X109628201Y-57602137D01*
X111981640Y-57602137D01*
X112019063Y-57605823D01*
X112056486Y-57602137D01*
X112056489Y-57602137D01*
X112168441Y-57591111D01*
X112312078Y-57547539D01*
X112444455Y-57476782D01*
X112560485Y-57381559D01*
X112584347Y-57352483D01*
X113606031Y-56330800D01*
X113665339Y-56330800D01*
X113865298Y-56291026D01*
X114053656Y-56213005D01*
X114223174Y-56099737D01*
X114367337Y-55955574D01*
X114480605Y-55786056D01*
X114558626Y-55597698D01*
X114598400Y-55397739D01*
X114598400Y-55193861D01*
X114558626Y-54993902D01*
X114480605Y-54805544D01*
X114367337Y-54636026D01*
X114223174Y-54491863D01*
X114053656Y-54378595D01*
X113865298Y-54300574D01*
X113665339Y-54260800D01*
X113461461Y-54260800D01*
X113261502Y-54300574D01*
X113073144Y-54378595D01*
X112903626Y-54491863D01*
X112759463Y-54636026D01*
X112646195Y-54805544D01*
X112568174Y-54993902D01*
X112528400Y-55193861D01*
X112528400Y-55253169D01*
X111703433Y-56078137D01*
X111081920Y-56078137D01*
X114977453Y-52182605D01*
X115006522Y-52158749D01*
X115101745Y-52042719D01*
X115172502Y-51910342D01*
X115216074Y-51766705D01*
X115227100Y-51654753D01*
X115227100Y-51654751D01*
X115230786Y-51617328D01*
X115227100Y-51579905D01*
X115227100Y-46162630D01*
X116298431Y-45091300D01*
X116357739Y-45091300D01*
X116557698Y-45051526D01*
X116746056Y-44973505D01*
X116915574Y-44860237D01*
X117059737Y-44716074D01*
X117173005Y-44546556D01*
X117251026Y-44358198D01*
X117290800Y-44158239D01*
X117290800Y-43954361D01*
X117251026Y-43754402D01*
X117173005Y-43566044D01*
X117059737Y-43396526D01*
X116915574Y-43252363D01*
X116746056Y-43139095D01*
X116557698Y-43061074D01*
X116357739Y-43021300D01*
X116153861Y-43021300D01*
X115953902Y-43061074D01*
X115765544Y-43139095D01*
X115596026Y-43252363D01*
X115451863Y-43396526D01*
X115338595Y-43566044D01*
X115260574Y-43754402D01*
X115220800Y-43954361D01*
X115220800Y-44013669D01*
X113952749Y-45281721D01*
X113923679Y-45305578D01*
X113899822Y-45334648D01*
X113899821Y-45334649D01*
X113828455Y-45421608D01*
X113757699Y-45553985D01*
X113714127Y-45697622D01*
X113699414Y-45847000D01*
X113703101Y-45884433D01*
X113703100Y-51301696D01*
X109926670Y-55078127D01*
X109867361Y-55078127D01*
X109688490Y-55113706D01*
X109688490Y-48424640D01*
X113402831Y-44710300D01*
X113462139Y-44710300D01*
X113662098Y-44670526D01*
X113850456Y-44592505D01*
X114019974Y-44479237D01*
X114164137Y-44335074D01*
X114277405Y-44165556D01*
X114355426Y-43977198D01*
X114395200Y-43777239D01*
X114395200Y-43573361D01*
X114355426Y-43373402D01*
X114277405Y-43185044D01*
X114164137Y-43015526D01*
X114019974Y-42871363D01*
X113850456Y-42758095D01*
X113662098Y-42680074D01*
X113462139Y-42640300D01*
X113258261Y-42640300D01*
X113058302Y-42680074D01*
X112869944Y-42758095D01*
X112700426Y-42871363D01*
X112556263Y-43015526D01*
X112442995Y-43185044D01*
X112364974Y-43373402D01*
X112325200Y-43573361D01*
X112325200Y-43632669D01*
X108414144Y-47543726D01*
X108385068Y-47567588D01*
X108329473Y-47635332D01*
X108289845Y-47683618D01*
X108276105Y-47709325D01*
X108219088Y-47815996D01*
X108175516Y-47959633D01*
X108171687Y-47998514D01*
X108160804Y-48109010D01*
X108164490Y-48146433D01*
X108164491Y-56138425D01*
X108122553Y-56180363D01*
X108009285Y-56349881D01*
X107931264Y-56538239D01*
X107891490Y-56738198D01*
X77735000Y-56738198D01*
X77735000Y-50228161D01*
X81299100Y-50228161D01*
X81299100Y-50432039D01*
X81338874Y-50631998D01*
X81416895Y-50820356D01*
X81530163Y-50989874D01*
X81674326Y-51134037D01*
X81843844Y-51247305D01*
X82032202Y-51325326D01*
X82232161Y-51365100D01*
X82436039Y-51365100D01*
X82635998Y-51325326D01*
X82824356Y-51247305D01*
X82993874Y-51134037D01*
X83138037Y-50989874D01*
X83251305Y-50820356D01*
X83329326Y-50631998D01*
X83369100Y-50432039D01*
X83369100Y-50228161D01*
X87407800Y-50228161D01*
X87407800Y-50432039D01*
X87447574Y-50631998D01*
X87525595Y-50820356D01*
X87638863Y-50989874D01*
X87783026Y-51134037D01*
X87952544Y-51247305D01*
X88140902Y-51325326D01*
X88340861Y-51365100D01*
X88544739Y-51365100D01*
X88744698Y-51325326D01*
X88933056Y-51247305D01*
X89102574Y-51134037D01*
X89246737Y-50989874D01*
X89360005Y-50820356D01*
X89438026Y-50631998D01*
X89477800Y-50432039D01*
X89477800Y-50228161D01*
X89438026Y-50028202D01*
X89360005Y-49839844D01*
X89246737Y-49670326D01*
X89204800Y-49628389D01*
X89204800Y-44459026D01*
X89254052Y-44409774D01*
X89367320Y-44240256D01*
X89445341Y-44051898D01*
X89485115Y-43851939D01*
X89485115Y-43648061D01*
X89445341Y-43448102D01*
X89367320Y-43259744D01*
X89254052Y-43090226D01*
X89109889Y-42946063D01*
X88940371Y-42832795D01*
X88752013Y-42754774D01*
X88552054Y-42715000D01*
X88348176Y-42715000D01*
X88148217Y-42754774D01*
X87959859Y-42832795D01*
X87790341Y-42946063D01*
X87646178Y-43090226D01*
X87532910Y-43259744D01*
X87454889Y-43448102D01*
X87415115Y-43648061D01*
X87415115Y-43851939D01*
X87454889Y-44051898D01*
X87532910Y-44240256D01*
X87646178Y-44409774D01*
X87680801Y-44444397D01*
X87680800Y-49628389D01*
X87638863Y-49670326D01*
X87525595Y-49839844D01*
X87447574Y-50028202D01*
X87407800Y-50228161D01*
X83369100Y-50228161D01*
X83329326Y-50028202D01*
X83251305Y-49839844D01*
X83138037Y-49670326D01*
X82993874Y-49526163D01*
X82824356Y-49412895D01*
X82635998Y-49334874D01*
X82436039Y-49295100D01*
X82232161Y-49295100D01*
X82032202Y-49334874D01*
X81843844Y-49412895D01*
X81674326Y-49526163D01*
X81530163Y-49670326D01*
X81416895Y-49839844D01*
X81338874Y-50028202D01*
X81299100Y-50228161D01*
X77735000Y-50228161D01*
X77735000Y-49050080D01*
X77764939Y-49122359D01*
X77911038Y-49341013D01*
X78096987Y-49526962D01*
X78315641Y-49673061D01*
X78558595Y-49773696D01*
X78816514Y-49825000D01*
X79079486Y-49825000D01*
X79337405Y-49773696D01*
X79580359Y-49673061D01*
X79799013Y-49526962D01*
X79984962Y-49341013D01*
X80131061Y-49122359D01*
X80231696Y-48879405D01*
X80283000Y-48621486D01*
X80283000Y-48358514D01*
X80231696Y-48100595D01*
X80189413Y-47998514D01*
X83563000Y-47998514D01*
X83563000Y-48261486D01*
X83614304Y-48519405D01*
X83714939Y-48762359D01*
X83861038Y-48981013D01*
X84046987Y-49166962D01*
X84265641Y-49313061D01*
X84508595Y-49413696D01*
X84766514Y-49465000D01*
X85029486Y-49465000D01*
X85287405Y-49413696D01*
X85530359Y-49313061D01*
X85749013Y-49166962D01*
X85934962Y-48981013D01*
X86081061Y-48762359D01*
X86102749Y-48710000D01*
X86257325Y-48710000D01*
X86471775Y-48667343D01*
X86673782Y-48583669D01*
X86855584Y-48462193D01*
X87010193Y-48307584D01*
X87131669Y-48125782D01*
X87215343Y-47923775D01*
X87258000Y-47709325D01*
X87258000Y-47490675D01*
X87215343Y-47276225D01*
X87131669Y-47074218D01*
X87010193Y-46892416D01*
X86855584Y-46737807D01*
X86673782Y-46616331D01*
X86471775Y-46532657D01*
X86257325Y-46490000D01*
X86038675Y-46490000D01*
X85824225Y-46532657D01*
X85622218Y-46616331D01*
X85440416Y-46737807D01*
X85318881Y-46859342D01*
X85287405Y-46846304D01*
X85029486Y-46795000D01*
X84766514Y-46795000D01*
X84508595Y-46846304D01*
X84265641Y-46946939D01*
X84046987Y-47093038D01*
X83861038Y-47278987D01*
X83714939Y-47497641D01*
X83614304Y-47740595D01*
X83563000Y-47998514D01*
X80189413Y-47998514D01*
X80131061Y-47857641D01*
X79984962Y-47638987D01*
X79799013Y-47453038D01*
X79580359Y-47306939D01*
X79337405Y-47206304D01*
X79079486Y-47155000D01*
X78816514Y-47155000D01*
X78558595Y-47206304D01*
X78315641Y-47306939D01*
X78096987Y-47453038D01*
X77911038Y-47638987D01*
X77764939Y-47857641D01*
X77735000Y-47929920D01*
X77735000Y-41998561D01*
X99155300Y-41998561D01*
X99155300Y-42202439D01*
X99195074Y-42402398D01*
X99273095Y-42590756D01*
X99386363Y-42760274D01*
X99428300Y-42802211D01*
X99428301Y-48244088D01*
X99386363Y-48286026D01*
X99273095Y-48455544D01*
X99195074Y-48643902D01*
X99155300Y-48843861D01*
X99155300Y-49047739D01*
X99195074Y-49247698D01*
X99273095Y-49436056D01*
X99386363Y-49605574D01*
X99530526Y-49749737D01*
X99700044Y-49863005D01*
X99888402Y-49941026D01*
X100088361Y-49980800D01*
X100292239Y-49980800D01*
X100492198Y-49941026D01*
X100680556Y-49863005D01*
X100831607Y-49762076D01*
X100944644Y-49837605D01*
X101133002Y-49915626D01*
X101332961Y-49955400D01*
X101536839Y-49955400D01*
X101736798Y-49915626D01*
X101925156Y-49837605D01*
X102094674Y-49724337D01*
X102238837Y-49580174D01*
X102352105Y-49410656D01*
X102430126Y-49222298D01*
X102469900Y-49022339D01*
X102469900Y-48818461D01*
X102430126Y-48618502D01*
X102352105Y-48430144D01*
X102238837Y-48260626D01*
X102196900Y-48218689D01*
X102196900Y-41519511D01*
X102238837Y-41477574D01*
X102352105Y-41308056D01*
X102430126Y-41119698D01*
X102469900Y-40919739D01*
X102469900Y-40715861D01*
X102430126Y-40515902D01*
X102352105Y-40327544D01*
X102238837Y-40158026D01*
X102094674Y-40013863D01*
X101925156Y-39900595D01*
X101736798Y-39822574D01*
X101536839Y-39782800D01*
X101332961Y-39782800D01*
X101133002Y-39822574D01*
X100944644Y-39900595D01*
X100775126Y-40013863D01*
X100630963Y-40158026D01*
X100517695Y-40327544D01*
X100439674Y-40515902D01*
X100399900Y-40715861D01*
X100399900Y-40919739D01*
X100434523Y-41093802D01*
X100292239Y-41065500D01*
X100088361Y-41065500D01*
X99888402Y-41105274D01*
X99700044Y-41183295D01*
X99530526Y-41296563D01*
X99386363Y-41440726D01*
X99273095Y-41610244D01*
X99195074Y-41798602D01*
X99155300Y-41998561D01*
X77735000Y-41998561D01*
X77735000Y-40070080D01*
X77764939Y-40142359D01*
X77911038Y-40361013D01*
X78096987Y-40546962D01*
X78315641Y-40693061D01*
X78558595Y-40793696D01*
X78816514Y-40845000D01*
X79079486Y-40845000D01*
X79337405Y-40793696D01*
X79580359Y-40693061D01*
X79799013Y-40546962D01*
X79984962Y-40361013D01*
X80131061Y-40142359D01*
X80231696Y-39899405D01*
X80263699Y-39738514D01*
X83563000Y-39738514D01*
X83563000Y-40001486D01*
X83614304Y-40259405D01*
X83714939Y-40502359D01*
X83861038Y-40721013D01*
X84046987Y-40906962D01*
X84265641Y-41053061D01*
X84508595Y-41153696D01*
X84766514Y-41205000D01*
X85029486Y-41205000D01*
X85287405Y-41153696D01*
X85468881Y-41078526D01*
X85536036Y-41145681D01*
X85693269Y-41250741D01*
X85867978Y-41323108D01*
X86053448Y-41360000D01*
X86242552Y-41360000D01*
X86428022Y-41323108D01*
X86602731Y-41250741D01*
X86759964Y-41145681D01*
X86893681Y-41011964D01*
X86998741Y-40854731D01*
X87071108Y-40680022D01*
X87108000Y-40494552D01*
X87108000Y-40305448D01*
X87071108Y-40119978D01*
X86998741Y-39945269D01*
X86893681Y-39788036D01*
X86759964Y-39654319D01*
X86602731Y-39549259D01*
X86428022Y-39476892D01*
X86242552Y-39440000D01*
X86164881Y-39440000D01*
X86081061Y-39237641D01*
X85934962Y-39018987D01*
X85749013Y-38833038D01*
X85530359Y-38686939D01*
X85287405Y-38586304D01*
X85029486Y-38535000D01*
X84766514Y-38535000D01*
X84508595Y-38586304D01*
X84265641Y-38686939D01*
X84046987Y-38833038D01*
X83861038Y-39018987D01*
X83714939Y-39237641D01*
X83614304Y-39480595D01*
X83563000Y-39738514D01*
X80263699Y-39738514D01*
X80283000Y-39641486D01*
X80283000Y-39378514D01*
X80231696Y-39120595D01*
X80131061Y-38877641D01*
X79984962Y-38658987D01*
X79799013Y-38473038D01*
X79580359Y-38326939D01*
X79337405Y-38226304D01*
X79079486Y-38175000D01*
X78816514Y-38175000D01*
X78558595Y-38226304D01*
X78315641Y-38326939D01*
X78096987Y-38473038D01*
X77911038Y-38658987D01*
X77764939Y-38877641D01*
X77735000Y-38949920D01*
X77735000Y-31432161D01*
X107384900Y-31432161D01*
X107384900Y-31636039D01*
X107424674Y-31835998D01*
X107502695Y-32024356D01*
X107615963Y-32193874D01*
X107760126Y-32338037D01*
X107929644Y-32451305D01*
X108118002Y-32529326D01*
X108317961Y-32569100D01*
X108521839Y-32569100D01*
X108721798Y-32529326D01*
X108910156Y-32451305D01*
X108952368Y-32423100D01*
X112840604Y-32423100D01*
X112958844Y-32502105D01*
X113147202Y-32580126D01*
X113347161Y-32619900D01*
X113551039Y-32619900D01*
X113750998Y-32580126D01*
X113939356Y-32502105D01*
X114108874Y-32388837D01*
X114253037Y-32244674D01*
X114366305Y-32075156D01*
X114444326Y-31886798D01*
X114484100Y-31686839D01*
X114484100Y-31482961D01*
X114444326Y-31283002D01*
X114366305Y-31094644D01*
X114253037Y-30925126D01*
X114108874Y-30780963D01*
X113939356Y-30667695D01*
X113750998Y-30589674D01*
X113551039Y-30549900D01*
X113347161Y-30549900D01*
X113147202Y-30589674D01*
X113013393Y-30645100D01*
X108952368Y-30645100D01*
X108910156Y-30616895D01*
X108721798Y-30538874D01*
X108521839Y-30499100D01*
X108317961Y-30499100D01*
X108118002Y-30538874D01*
X107929644Y-30616895D01*
X107760126Y-30730163D01*
X107615963Y-30874326D01*
X107502695Y-31043844D01*
X107424674Y-31232202D01*
X107384900Y-31432161D01*
X77735000Y-31432161D01*
X77735000Y-17963896D01*
X138265000Y-17963896D01*
X138265001Y-70536105D01*
X138268229Y-70568875D01*
X138268098Y-70587559D01*
X138269099Y-70597772D01*
X138330300Y-71180062D01*
X138343710Y-71245388D01*
X138356179Y-71310756D01*
X138359143Y-71320572D01*
X138359144Y-71320579D01*
X138359147Y-71320585D01*
X138532282Y-71879894D01*
X138558095Y-71941301D01*
X138583051Y-72003069D01*
X138587869Y-72012130D01*
X138866345Y-72527162D01*
X138903608Y-72582408D01*
X138940074Y-72638133D01*
X138946560Y-72646086D01*
X139319770Y-73097219D01*
X139367060Y-73144180D01*
X139413648Y-73191754D01*
X139421555Y-73198296D01*
X139875283Y-73568348D01*
X139930776Y-73605217D01*
X139985737Y-73642850D01*
X139994764Y-73647731D01*
X140511728Y-73922605D01*
X140573367Y-73948011D01*
X140634548Y-73974233D01*
X140644351Y-73977268D01*
X141204859Y-74146495D01*
X141270251Y-74159443D01*
X141335367Y-74173284D01*
X141345573Y-74174357D01*
X141928276Y-74231492D01*
X141928277Y-74231492D01*
X141963895Y-74235000D01*
X198036105Y-74235000D01*
X198068884Y-74231772D01*
X198087559Y-74231902D01*
X198097772Y-74230901D01*
X198680062Y-74169700D01*
X198745388Y-74156290D01*
X198810756Y-74143821D01*
X198820572Y-74140857D01*
X198820579Y-74140856D01*
X198820585Y-74140853D01*
X199379894Y-73967718D01*
X199441301Y-73941905D01*
X199503069Y-73916949D01*
X199512130Y-73912131D01*
X200027162Y-73633655D01*
X200082408Y-73596392D01*
X200138133Y-73559926D01*
X200146086Y-73553440D01*
X200597219Y-73180230D01*
X200644180Y-73132940D01*
X200691754Y-73086352D01*
X200698296Y-73078445D01*
X201068348Y-72624717D01*
X201105217Y-72569224D01*
X201142850Y-72514263D01*
X201147731Y-72505236D01*
X201422605Y-71988272D01*
X201448011Y-71926633D01*
X201474233Y-71865452D01*
X201477268Y-71855649D01*
X201646495Y-71295141D01*
X201659443Y-71229749D01*
X201673284Y-71164633D01*
X201674357Y-71154427D01*
X201731492Y-70571724D01*
X201731492Y-70571723D01*
X201735000Y-70536105D01*
X201735000Y-17963895D01*
X201731772Y-17931116D01*
X201731902Y-17912441D01*
X201730901Y-17902227D01*
X201669700Y-17319938D01*
X201656294Y-17254631D01*
X201643821Y-17189245D01*
X201640857Y-17179428D01*
X201640856Y-17179421D01*
X201640853Y-17179415D01*
X201467718Y-16620107D01*
X201441903Y-16558696D01*
X201416949Y-16496931D01*
X201412131Y-16487870D01*
X201133655Y-15972838D01*
X201096392Y-15917592D01*
X201059926Y-15861867D01*
X201053440Y-15853914D01*
X200680230Y-15402781D01*
X200632957Y-15355837D01*
X200586352Y-15308246D01*
X200578445Y-15301704D01*
X200124717Y-14931652D01*
X200069198Y-14894765D01*
X200014263Y-14857151D01*
X200005236Y-14852269D01*
X199488272Y-14577395D01*
X199426633Y-14551989D01*
X199365452Y-14525767D01*
X199355649Y-14522732D01*
X198795141Y-14353505D01*
X198729781Y-14340563D01*
X198664633Y-14326716D01*
X198654427Y-14325643D01*
X198071724Y-14268508D01*
X198071723Y-14268508D01*
X198036105Y-14265000D01*
X141963895Y-14265000D01*
X141931116Y-14268228D01*
X141912441Y-14268098D01*
X141902227Y-14269099D01*
X141319938Y-14330300D01*
X141254631Y-14343706D01*
X141189245Y-14356179D01*
X141179428Y-14359143D01*
X141179421Y-14359144D01*
X141179415Y-14359147D01*
X140620107Y-14532282D01*
X140558696Y-14558097D01*
X140496931Y-14583051D01*
X140487870Y-14587869D01*
X139972838Y-14866345D01*
X139917592Y-14903608D01*
X139861867Y-14940074D01*
X139853914Y-14946560D01*
X139402781Y-15319770D01*
X139355837Y-15367043D01*
X139308246Y-15413648D01*
X139301704Y-15421555D01*
X138931652Y-15875283D01*
X138894765Y-15930802D01*
X138857151Y-15985737D01*
X138852269Y-15994764D01*
X138577395Y-16511728D01*
X138551989Y-16573367D01*
X138525767Y-16634548D01*
X138522732Y-16644351D01*
X138353505Y-17204859D01*
X138340563Y-17270219D01*
X138326716Y-17335367D01*
X138325643Y-17345573D01*
X138268508Y-17928276D01*
X138265000Y-17963896D01*
X77735000Y-17963896D01*
X77735000Y-17963895D01*
X77731772Y-17931116D01*
X77731902Y-17912441D01*
X77730901Y-17902227D01*
X77669700Y-17319938D01*
X77656294Y-17254631D01*
X77643821Y-17189245D01*
X77640857Y-17179428D01*
X77640856Y-17179421D01*
X77640853Y-17179415D01*
X77467718Y-16620107D01*
X77441903Y-16558696D01*
X77416949Y-16496931D01*
X77412131Y-16487870D01*
X77133655Y-15972838D01*
X77096392Y-15917592D01*
X77059926Y-15861867D01*
X77053440Y-15853914D01*
X76680230Y-15402781D01*
X76632957Y-15355837D01*
X76586352Y-15308246D01*
X76578445Y-15301704D01*
X76124717Y-14931652D01*
X76069198Y-14894765D01*
X76014263Y-14857151D01*
X76005236Y-14852269D01*
X75488272Y-14577395D01*
X75426633Y-14551989D01*
X75365452Y-14525767D01*
X75355649Y-14522732D01*
X74795141Y-14353505D01*
X74729781Y-14340563D01*
X74664633Y-14326716D01*
X74654427Y-14325643D01*
X74071724Y-14268508D01*
X74071723Y-14268508D01*
X74036105Y-14265000D01*
X17963895Y-14265000D01*
X17931116Y-14268228D01*
X17912441Y-14268098D01*
X17902227Y-14269099D01*
X17319938Y-14330300D01*
X17254631Y-14343706D01*
X17189245Y-14356179D01*
X17179428Y-14359143D01*
X17179421Y-14359144D01*
X17179415Y-14359147D01*
X16620107Y-14532282D01*
X16558696Y-14558097D01*
X16496931Y-14583051D01*
X16487870Y-14587869D01*
X15972838Y-14866345D01*
X15917592Y-14903608D01*
X15861867Y-14940074D01*
X15853914Y-14946560D01*
X15402781Y-15319770D01*
X15355837Y-15367043D01*
X15308246Y-15413648D01*
X15301704Y-15421555D01*
X14931652Y-15875283D01*
X14894765Y-15930802D01*
X14857151Y-15985737D01*
X14852269Y-15994764D01*
X14577395Y-16511728D01*
X14551989Y-16573367D01*
X14525767Y-16634548D01*
X14522732Y-16644351D01*
X14353505Y-17204859D01*
X14340563Y-17270219D01*
X14326716Y-17335367D01*
X14325643Y-17345573D01*
X14268508Y-17928276D01*
X14265000Y-17963896D01*
X735000Y-17963896D01*
X735000Y-6528876D01*
X808221Y-5598514D01*
X1019322Y-4719216D01*
X1365372Y-3883779D01*
X1837855Y-3112756D01*
X2425137Y-2425137D01*
X3112755Y-1837856D01*
X3883781Y-1365371D01*
X4719220Y-1019321D01*
X5598514Y-808221D01*
X6528875Y-735000D01*
X209971124Y-735000D01*
X210901486Y-808221D01*
G37*
X210901486Y-808221D02*
X211780784Y-1019322D01*
X212616221Y-1365372D01*
X213387244Y-1837855D01*
X214074863Y-2425137D01*
X214662144Y-3112755D01*
X215134629Y-3883781D01*
X215480679Y-4719220D01*
X215691779Y-5598514D01*
X215765000Y-6528875D01*
X215765001Y-81971112D01*
X215691779Y-82901486D01*
X215480679Y-83780780D01*
X215134629Y-84616219D01*
X214662144Y-85387245D01*
X214074863Y-86074863D01*
X213387244Y-86662145D01*
X212616221Y-87134628D01*
X211780784Y-87480678D01*
X210901486Y-87691779D01*
X209971124Y-87765000D01*
X6528875Y-87765000D01*
X5598514Y-87691779D01*
X4719220Y-87480679D01*
X3883781Y-87134629D01*
X3112755Y-86662144D01*
X2425137Y-86074863D01*
X1837855Y-85387244D01*
X1365372Y-84616221D01*
X1019322Y-83780784D01*
X808221Y-82901486D01*
X735000Y-81971124D01*
X735000Y-17963896D01*
X14265000Y-17963896D01*
X14265001Y-70536105D01*
X14268229Y-70568875D01*
X14268098Y-70587559D01*
X14269099Y-70597772D01*
X14330300Y-71180062D01*
X14343710Y-71245388D01*
X14356179Y-71310756D01*
X14359143Y-71320572D01*
X14359144Y-71320579D01*
X14359147Y-71320585D01*
X14532282Y-71879894D01*
X14558095Y-71941301D01*
X14583051Y-72003069D01*
X14587869Y-72012130D01*
X14866345Y-72527162D01*
X14903608Y-72582408D01*
X14940074Y-72638133D01*
X14946560Y-72646086D01*
X15319770Y-73097219D01*
X15367060Y-73144180D01*
X15413648Y-73191754D01*
X15421555Y-73198296D01*
X15875283Y-73568348D01*
X15930776Y-73605217D01*
X15985737Y-73642850D01*
X15994764Y-73647731D01*
X16511728Y-73922605D01*
X16573367Y-73948011D01*
X16634548Y-73974233D01*
X16644351Y-73977268D01*
X17204859Y-74146495D01*
X17270251Y-74159443D01*
X17335367Y-74173284D01*
X17345573Y-74174357D01*
X17928276Y-74231492D01*
X17928277Y-74231492D01*
X17963895Y-74235000D01*
X74036105Y-74235000D01*
X74068884Y-74231772D01*
X74087559Y-74231902D01*
X74097772Y-74230901D01*
X74680062Y-74169700D01*
X74745388Y-74156290D01*
X74810756Y-74143821D01*
X74820572Y-74140857D01*
X74820579Y-74140856D01*
X74820585Y-74140853D01*
X75379894Y-73967718D01*
X75441301Y-73941905D01*
X75503069Y-73916949D01*
X75512130Y-73912131D01*
X76027162Y-73633655D01*
X76082408Y-73596392D01*
X76138133Y-73559926D01*
X76146086Y-73553440D01*
X76597219Y-73180230D01*
X76644180Y-73132940D01*
X76691754Y-73086352D01*
X76698296Y-73078445D01*
X77068348Y-72624717D01*
X77105217Y-72569224D01*
X77142850Y-72514263D01*
X77147731Y-72505236D01*
X77422605Y-71988272D01*
X77448011Y-71926633D01*
X77474233Y-71865452D01*
X77477268Y-71855649D01*
X77646495Y-71295141D01*
X77659443Y-71229749D01*
X77673284Y-71164633D01*
X77674357Y-71154427D01*
X77731492Y-70571724D01*
X77731492Y-70571723D01*
X77735000Y-70536105D01*
X77735000Y-68782861D01*
X106889600Y-68782861D01*
X106889600Y-68986739D01*
X106929374Y-69186698D01*
X107007395Y-69375056D01*
X107120663Y-69544574D01*
X107264826Y-69688737D01*
X107434344Y-69802005D01*
X107622702Y-69880026D01*
X107822661Y-69919800D01*
X108026539Y-69919800D01*
X108226498Y-69880026D01*
X108414856Y-69802005D01*
X108571110Y-69697600D01*
X109458089Y-69697600D01*
X109500026Y-69739537D01*
X109669544Y-69852805D01*
X109857902Y-69930826D01*
X110057861Y-69970600D01*
X110261739Y-69970600D01*
X110461698Y-69930826D01*
X110650056Y-69852805D01*
X110819574Y-69739537D01*
X110963737Y-69595374D01*
X111077005Y-69425856D01*
X111155026Y-69237498D01*
X111194800Y-69037539D01*
X111194800Y-68833661D01*
X111155026Y-68633702D01*
X111077005Y-68445344D01*
X110963737Y-68275826D01*
X110819574Y-68131663D01*
X110650056Y-68018395D01*
X110461698Y-67940374D01*
X110261739Y-67900600D01*
X110057861Y-67900600D01*
X109857902Y-67940374D01*
X109669544Y-68018395D01*
X109500026Y-68131663D01*
X109458089Y-68173600D01*
X108677111Y-68173600D01*
X108584374Y-68080863D01*
X108414856Y-67967595D01*
X108226498Y-67889574D01*
X108026539Y-67849800D01*
X107822661Y-67849800D01*
X107622702Y-67889574D01*
X107434344Y-67967595D01*
X107264826Y-68080863D01*
X107120663Y-68225026D01*
X107007395Y-68394544D01*
X106929374Y-68582902D01*
X106889600Y-68782861D01*
X77735000Y-68782861D01*
X77735000Y-56738198D01*
X107891490Y-56738198D01*
X107891490Y-56942076D01*
X107931264Y-57142035D01*
X108009285Y-57330393D01*
X108122553Y-57499911D01*
X108266716Y-57644074D01*
X108436234Y-57757342D01*
X108624592Y-57835363D01*
X108824551Y-57875137D01*
X109028429Y-57875137D01*
X109228388Y-57835363D01*
X109416746Y-57757342D01*
X109586264Y-57644074D01*
X109628201Y-57602137D01*
X111981640Y-57602137D01*
X112019063Y-57605823D01*
X112056486Y-57602137D01*
X112056489Y-57602137D01*
X112168441Y-57591111D01*
X112312078Y-57547539D01*
X112444455Y-57476782D01*
X112560485Y-57381559D01*
X112584347Y-57352483D01*
X113606031Y-56330800D01*
X113665339Y-56330800D01*
X113865298Y-56291026D01*
X114053656Y-56213005D01*
X114223174Y-56099737D01*
X114367337Y-55955574D01*
X114480605Y-55786056D01*
X114558626Y-55597698D01*
X114598400Y-55397739D01*
X114598400Y-55193861D01*
X114558626Y-54993902D01*
X114480605Y-54805544D01*
X114367337Y-54636026D01*
X114223174Y-54491863D01*
X114053656Y-54378595D01*
X113865298Y-54300574D01*
X113665339Y-54260800D01*
X113461461Y-54260800D01*
X113261502Y-54300574D01*
X113073144Y-54378595D01*
X112903626Y-54491863D01*
X112759463Y-54636026D01*
X112646195Y-54805544D01*
X112568174Y-54993902D01*
X112528400Y-55193861D01*
X112528400Y-55253169D01*
X111703433Y-56078137D01*
X111081920Y-56078137D01*
X114977453Y-52182605D01*
X115006522Y-52158749D01*
X115101745Y-52042719D01*
X115172502Y-51910342D01*
X115216074Y-51766705D01*
X115227100Y-51654753D01*
X115227100Y-51654751D01*
X115230786Y-51617328D01*
X115227100Y-51579905D01*
X115227100Y-46162630D01*
X116298431Y-45091300D01*
X116357739Y-45091300D01*
X116557698Y-45051526D01*
X116746056Y-44973505D01*
X116915574Y-44860237D01*
X117059737Y-44716074D01*
X117173005Y-44546556D01*
X117251026Y-44358198D01*
X117290800Y-44158239D01*
X117290800Y-43954361D01*
X117251026Y-43754402D01*
X117173005Y-43566044D01*
X117059737Y-43396526D01*
X116915574Y-43252363D01*
X116746056Y-43139095D01*
X116557698Y-43061074D01*
X116357739Y-43021300D01*
X116153861Y-43021300D01*
X115953902Y-43061074D01*
X115765544Y-43139095D01*
X115596026Y-43252363D01*
X115451863Y-43396526D01*
X115338595Y-43566044D01*
X115260574Y-43754402D01*
X115220800Y-43954361D01*
X115220800Y-44013669D01*
X113952749Y-45281721D01*
X113923679Y-45305578D01*
X113899822Y-45334648D01*
X113899821Y-45334649D01*
X113828455Y-45421608D01*
X113757699Y-45553985D01*
X113714127Y-45697622D01*
X113699414Y-45847000D01*
X113703101Y-45884433D01*
X113703100Y-51301696D01*
X109926670Y-55078127D01*
X109867361Y-55078127D01*
X109688490Y-55113706D01*
X109688490Y-48424640D01*
X113402831Y-44710300D01*
X113462139Y-44710300D01*
X113662098Y-44670526D01*
X113850456Y-44592505D01*
X114019974Y-44479237D01*
X114164137Y-44335074D01*
X114277405Y-44165556D01*
X114355426Y-43977198D01*
X114395200Y-43777239D01*
X114395200Y-43573361D01*
X114355426Y-43373402D01*
X114277405Y-43185044D01*
X114164137Y-43015526D01*
X114019974Y-42871363D01*
X113850456Y-42758095D01*
X113662098Y-42680074D01*
X113462139Y-42640300D01*
X113258261Y-42640300D01*
X113058302Y-42680074D01*
X112869944Y-42758095D01*
X112700426Y-42871363D01*
X112556263Y-43015526D01*
X112442995Y-43185044D01*
X112364974Y-43373402D01*
X112325200Y-43573361D01*
X112325200Y-43632669D01*
X108414144Y-47543726D01*
X108385068Y-47567588D01*
X108329473Y-47635332D01*
X108289845Y-47683618D01*
X108276105Y-47709325D01*
X108219088Y-47815996D01*
X108175516Y-47959633D01*
X108171687Y-47998514D01*
X108160804Y-48109010D01*
X108164490Y-48146433D01*
X108164491Y-56138425D01*
X108122553Y-56180363D01*
X108009285Y-56349881D01*
X107931264Y-56538239D01*
X107891490Y-56738198D01*
X77735000Y-56738198D01*
X77735000Y-50228161D01*
X81299100Y-50228161D01*
X81299100Y-50432039D01*
X81338874Y-50631998D01*
X81416895Y-50820356D01*
X81530163Y-50989874D01*
X81674326Y-51134037D01*
X81843844Y-51247305D01*
X82032202Y-51325326D01*
X82232161Y-51365100D01*
X82436039Y-51365100D01*
X82635998Y-51325326D01*
X82824356Y-51247305D01*
X82993874Y-51134037D01*
X83138037Y-50989874D01*
X83251305Y-50820356D01*
X83329326Y-50631998D01*
X83369100Y-50432039D01*
X83369100Y-50228161D01*
X87407800Y-50228161D01*
X87407800Y-50432039D01*
X87447574Y-50631998D01*
X87525595Y-50820356D01*
X87638863Y-50989874D01*
X87783026Y-51134037D01*
X87952544Y-51247305D01*
X88140902Y-51325326D01*
X88340861Y-51365100D01*
X88544739Y-51365100D01*
X88744698Y-51325326D01*
X88933056Y-51247305D01*
X89102574Y-51134037D01*
X89246737Y-50989874D01*
X89360005Y-50820356D01*
X89438026Y-50631998D01*
X89477800Y-50432039D01*
X89477800Y-50228161D01*
X89438026Y-50028202D01*
X89360005Y-49839844D01*
X89246737Y-49670326D01*
X89204800Y-49628389D01*
X89204800Y-44459026D01*
X89254052Y-44409774D01*
X89367320Y-44240256D01*
X89445341Y-44051898D01*
X89485115Y-43851939D01*
X89485115Y-43648061D01*
X89445341Y-43448102D01*
X89367320Y-43259744D01*
X89254052Y-43090226D01*
X89109889Y-42946063D01*
X88940371Y-42832795D01*
X88752013Y-42754774D01*
X88552054Y-42715000D01*
X88348176Y-42715000D01*
X88148217Y-42754774D01*
X87959859Y-42832795D01*
X87790341Y-42946063D01*
X87646178Y-43090226D01*
X87532910Y-43259744D01*
X87454889Y-43448102D01*
X87415115Y-43648061D01*
X87415115Y-43851939D01*
X87454889Y-44051898D01*
X87532910Y-44240256D01*
X87646178Y-44409774D01*
X87680801Y-44444397D01*
X87680800Y-49628389D01*
X87638863Y-49670326D01*
X87525595Y-49839844D01*
X87447574Y-50028202D01*
X87407800Y-50228161D01*
X83369100Y-50228161D01*
X83329326Y-50028202D01*
X83251305Y-49839844D01*
X83138037Y-49670326D01*
X82993874Y-49526163D01*
X82824356Y-49412895D01*
X82635998Y-49334874D01*
X82436039Y-49295100D01*
X82232161Y-49295100D01*
X82032202Y-49334874D01*
X81843844Y-49412895D01*
X81674326Y-49526163D01*
X81530163Y-49670326D01*
X81416895Y-49839844D01*
X81338874Y-50028202D01*
X81299100Y-50228161D01*
X77735000Y-50228161D01*
X77735000Y-49050080D01*
X77764939Y-49122359D01*
X77911038Y-49341013D01*
X78096987Y-49526962D01*
X78315641Y-49673061D01*
X78558595Y-49773696D01*
X78816514Y-49825000D01*
X79079486Y-49825000D01*
X79337405Y-49773696D01*
X79580359Y-49673061D01*
X79799013Y-49526962D01*
X79984962Y-49341013D01*
X80131061Y-49122359D01*
X80231696Y-48879405D01*
X80283000Y-48621486D01*
X80283000Y-48358514D01*
X80231696Y-48100595D01*
X80189413Y-47998514D01*
X83563000Y-47998514D01*
X83563000Y-48261486D01*
X83614304Y-48519405D01*
X83714939Y-48762359D01*
X83861038Y-48981013D01*
X84046987Y-49166962D01*
X84265641Y-49313061D01*
X84508595Y-49413696D01*
X84766514Y-49465000D01*
X85029486Y-49465000D01*
X85287405Y-49413696D01*
X85530359Y-49313061D01*
X85749013Y-49166962D01*
X85934962Y-48981013D01*
X86081061Y-48762359D01*
X86102749Y-48710000D01*
X86257325Y-48710000D01*
X86471775Y-48667343D01*
X86673782Y-48583669D01*
X86855584Y-48462193D01*
X87010193Y-48307584D01*
X87131669Y-48125782D01*
X87215343Y-47923775D01*
X87258000Y-47709325D01*
X87258000Y-47490675D01*
X87215343Y-47276225D01*
X87131669Y-47074218D01*
X87010193Y-46892416D01*
X86855584Y-46737807D01*
X86673782Y-46616331D01*
X86471775Y-46532657D01*
X86257325Y-46490000D01*
X86038675Y-46490000D01*
X85824225Y-46532657D01*
X85622218Y-46616331D01*
X85440416Y-46737807D01*
X85318881Y-46859342D01*
X85287405Y-46846304D01*
X85029486Y-46795000D01*
X84766514Y-46795000D01*
X84508595Y-46846304D01*
X84265641Y-46946939D01*
X84046987Y-47093038D01*
X83861038Y-47278987D01*
X83714939Y-47497641D01*
X83614304Y-47740595D01*
X83563000Y-47998514D01*
X80189413Y-47998514D01*
X80131061Y-47857641D01*
X79984962Y-47638987D01*
X79799013Y-47453038D01*
X79580359Y-47306939D01*
X79337405Y-47206304D01*
X79079486Y-47155000D01*
X78816514Y-47155000D01*
X78558595Y-47206304D01*
X78315641Y-47306939D01*
X78096987Y-47453038D01*
X77911038Y-47638987D01*
X77764939Y-47857641D01*
X77735000Y-47929920D01*
X77735000Y-41998561D01*
X99155300Y-41998561D01*
X99155300Y-42202439D01*
X99195074Y-42402398D01*
X99273095Y-42590756D01*
X99386363Y-42760274D01*
X99428300Y-42802211D01*
X99428301Y-48244088D01*
X99386363Y-48286026D01*
X99273095Y-48455544D01*
X99195074Y-48643902D01*
X99155300Y-48843861D01*
X99155300Y-49047739D01*
X99195074Y-49247698D01*
X99273095Y-49436056D01*
X99386363Y-49605574D01*
X99530526Y-49749737D01*
X99700044Y-49863005D01*
X99888402Y-49941026D01*
X100088361Y-49980800D01*
X100292239Y-49980800D01*
X100492198Y-49941026D01*
X100680556Y-49863005D01*
X100831607Y-49762076D01*
X100944644Y-49837605D01*
X101133002Y-49915626D01*
X101332961Y-49955400D01*
X101536839Y-49955400D01*
X101736798Y-49915626D01*
X101925156Y-49837605D01*
X102094674Y-49724337D01*
X102238837Y-49580174D01*
X102352105Y-49410656D01*
X102430126Y-49222298D01*
X102469900Y-49022339D01*
X102469900Y-48818461D01*
X102430126Y-48618502D01*
X102352105Y-48430144D01*
X102238837Y-48260626D01*
X102196900Y-48218689D01*
X102196900Y-41519511D01*
X102238837Y-41477574D01*
X102352105Y-41308056D01*
X102430126Y-41119698D01*
X102469900Y-40919739D01*
X102469900Y-40715861D01*
X102430126Y-40515902D01*
X102352105Y-40327544D01*
X102238837Y-40158026D01*
X102094674Y-40013863D01*
X101925156Y-39900595D01*
X101736798Y-39822574D01*
X101536839Y-39782800D01*
X101332961Y-39782800D01*
X101133002Y-39822574D01*
X100944644Y-39900595D01*
X100775126Y-40013863D01*
X100630963Y-40158026D01*
X100517695Y-40327544D01*
X100439674Y-40515902D01*
X100399900Y-40715861D01*
X100399900Y-40919739D01*
X100434523Y-41093802D01*
X100292239Y-41065500D01*
X100088361Y-41065500D01*
X99888402Y-41105274D01*
X99700044Y-41183295D01*
X99530526Y-41296563D01*
X99386363Y-41440726D01*
X99273095Y-41610244D01*
X99195074Y-41798602D01*
X99155300Y-41998561D01*
X77735000Y-41998561D01*
X77735000Y-40070080D01*
X77764939Y-40142359D01*
X77911038Y-40361013D01*
X78096987Y-40546962D01*
X78315641Y-40693061D01*
X78558595Y-40793696D01*
X78816514Y-40845000D01*
X79079486Y-40845000D01*
X79337405Y-40793696D01*
X79580359Y-40693061D01*
X79799013Y-40546962D01*
X79984962Y-40361013D01*
X80131061Y-40142359D01*
X80231696Y-39899405D01*
X80263699Y-39738514D01*
X83563000Y-39738514D01*
X83563000Y-40001486D01*
X83614304Y-40259405D01*
X83714939Y-40502359D01*
X83861038Y-40721013D01*
X84046987Y-40906962D01*
X84265641Y-41053061D01*
X84508595Y-41153696D01*
X84766514Y-41205000D01*
X85029486Y-41205000D01*
X85287405Y-41153696D01*
X85468881Y-41078526D01*
X85536036Y-41145681D01*
X85693269Y-41250741D01*
X85867978Y-41323108D01*
X86053448Y-41360000D01*
X86242552Y-41360000D01*
X86428022Y-41323108D01*
X86602731Y-41250741D01*
X86759964Y-41145681D01*
X86893681Y-41011964D01*
X86998741Y-40854731D01*
X87071108Y-40680022D01*
X87108000Y-40494552D01*
X87108000Y-40305448D01*
X87071108Y-40119978D01*
X86998741Y-39945269D01*
X86893681Y-39788036D01*
X86759964Y-39654319D01*
X86602731Y-39549259D01*
X86428022Y-39476892D01*
X86242552Y-39440000D01*
X86164881Y-39440000D01*
X86081061Y-39237641D01*
X85934962Y-39018987D01*
X85749013Y-38833038D01*
X85530359Y-38686939D01*
X85287405Y-38586304D01*
X85029486Y-38535000D01*
X84766514Y-38535000D01*
X84508595Y-38586304D01*
X84265641Y-38686939D01*
X84046987Y-38833038D01*
X83861038Y-39018987D01*
X83714939Y-39237641D01*
X83614304Y-39480595D01*
X83563000Y-39738514D01*
X80263699Y-39738514D01*
X80283000Y-39641486D01*
X80283000Y-39378514D01*
X80231696Y-39120595D01*
X80131061Y-38877641D01*
X79984962Y-38658987D01*
X79799013Y-38473038D01*
X79580359Y-38326939D01*
X79337405Y-38226304D01*
X79079486Y-38175000D01*
X78816514Y-38175000D01*
X78558595Y-38226304D01*
X78315641Y-38326939D01*
X78096987Y-38473038D01*
X77911038Y-38658987D01*
X77764939Y-38877641D01*
X77735000Y-38949920D01*
X77735000Y-31432161D01*
X107384900Y-31432161D01*
X107384900Y-31636039D01*
X107424674Y-31835998D01*
X107502695Y-32024356D01*
X107615963Y-32193874D01*
X107760126Y-32338037D01*
X107929644Y-32451305D01*
X108118002Y-32529326D01*
X108317961Y-32569100D01*
X108521839Y-32569100D01*
X108721798Y-32529326D01*
X108910156Y-32451305D01*
X108952368Y-32423100D01*
X112840604Y-32423100D01*
X112958844Y-32502105D01*
X113147202Y-32580126D01*
X113347161Y-32619900D01*
X113551039Y-32619900D01*
X113750998Y-32580126D01*
X113939356Y-32502105D01*
X114108874Y-32388837D01*
X114253037Y-32244674D01*
X114366305Y-32075156D01*
X114444326Y-31886798D01*
X114484100Y-31686839D01*
X114484100Y-31482961D01*
X114444326Y-31283002D01*
X114366305Y-31094644D01*
X114253037Y-30925126D01*
X114108874Y-30780963D01*
X113939356Y-30667695D01*
X113750998Y-30589674D01*
X113551039Y-30549900D01*
X113347161Y-30549900D01*
X113147202Y-30589674D01*
X113013393Y-30645100D01*
X108952368Y-30645100D01*
X108910156Y-30616895D01*
X108721798Y-30538874D01*
X108521839Y-30499100D01*
X108317961Y-30499100D01*
X108118002Y-30538874D01*
X107929644Y-30616895D01*
X107760126Y-30730163D01*
X107615963Y-30874326D01*
X107502695Y-31043844D01*
X107424674Y-31232202D01*
X107384900Y-31432161D01*
X77735000Y-31432161D01*
X77735000Y-17963896D01*
X138265000Y-17963896D01*
X138265001Y-70536105D01*
X138268229Y-70568875D01*
X138268098Y-70587559D01*
X138269099Y-70597772D01*
X138330300Y-71180062D01*
X138343710Y-71245388D01*
X138356179Y-71310756D01*
X138359143Y-71320572D01*
X138359144Y-71320579D01*
X138359147Y-71320585D01*
X138532282Y-71879894D01*
X138558095Y-71941301D01*
X138583051Y-72003069D01*
X138587869Y-72012130D01*
X138866345Y-72527162D01*
X138903608Y-72582408D01*
X138940074Y-72638133D01*
X138946560Y-72646086D01*
X139319770Y-73097219D01*
X139367060Y-73144180D01*
X139413648Y-73191754D01*
X139421555Y-73198296D01*
X139875283Y-73568348D01*
X139930776Y-73605217D01*
X139985737Y-73642850D01*
X139994764Y-73647731D01*
X140511728Y-73922605D01*
X140573367Y-73948011D01*
X140634548Y-73974233D01*
X140644351Y-73977268D01*
X141204859Y-74146495D01*
X141270251Y-74159443D01*
X141335367Y-74173284D01*
X141345573Y-74174357D01*
X141928276Y-74231492D01*
X141928277Y-74231492D01*
X141963895Y-74235000D01*
X198036105Y-74235000D01*
X198068884Y-74231772D01*
X198087559Y-74231902D01*
X198097772Y-74230901D01*
X198680062Y-74169700D01*
X198745388Y-74156290D01*
X198810756Y-74143821D01*
X198820572Y-74140857D01*
X198820579Y-74140856D01*
X198820585Y-74140853D01*
X199379894Y-73967718D01*
X199441301Y-73941905D01*
X199503069Y-73916949D01*
X199512130Y-73912131D01*
X200027162Y-73633655D01*
X200082408Y-73596392D01*
X200138133Y-73559926D01*
X200146086Y-73553440D01*
X200597219Y-73180230D01*
X200644180Y-73132940D01*
X200691754Y-73086352D01*
X200698296Y-73078445D01*
X201068348Y-72624717D01*
X201105217Y-72569224D01*
X201142850Y-72514263D01*
X201147731Y-72505236D01*
X201422605Y-71988272D01*
X201448011Y-71926633D01*
X201474233Y-71865452D01*
X201477268Y-71855649D01*
X201646495Y-71295141D01*
X201659443Y-71229749D01*
X201673284Y-71164633D01*
X201674357Y-71154427D01*
X201731492Y-70571724D01*
X201731492Y-70571723D01*
X201735000Y-70536105D01*
X201735000Y-17963895D01*
X201731772Y-17931116D01*
X201731902Y-17912441D01*
X201730901Y-17902227D01*
X201669700Y-17319938D01*
X201656294Y-17254631D01*
X201643821Y-17189245D01*
X201640857Y-17179428D01*
X201640856Y-17179421D01*
X201640853Y-17179415D01*
X201467718Y-16620107D01*
X201441903Y-16558696D01*
X201416949Y-16496931D01*
X201412131Y-16487870D01*
X201133655Y-15972838D01*
X201096392Y-15917592D01*
X201059926Y-15861867D01*
X201053440Y-15853914D01*
X200680230Y-15402781D01*
X200632957Y-15355837D01*
X200586352Y-15308246D01*
X200578445Y-15301704D01*
X200124717Y-14931652D01*
X200069198Y-14894765D01*
X200014263Y-14857151D01*
X200005236Y-14852269D01*
X199488272Y-14577395D01*
X199426633Y-14551989D01*
X199365452Y-14525767D01*
X199355649Y-14522732D01*
X198795141Y-14353505D01*
X198729781Y-14340563D01*
X198664633Y-14326716D01*
X198654427Y-14325643D01*
X198071724Y-14268508D01*
X198071723Y-14268508D01*
X198036105Y-14265000D01*
X141963895Y-14265000D01*
X141931116Y-14268228D01*
X141912441Y-14268098D01*
X141902227Y-14269099D01*
X141319938Y-14330300D01*
X141254631Y-14343706D01*
X141189245Y-14356179D01*
X141179428Y-14359143D01*
X141179421Y-14359144D01*
X141179415Y-14359147D01*
X140620107Y-14532282D01*
X140558696Y-14558097D01*
X140496931Y-14583051D01*
X140487870Y-14587869D01*
X139972838Y-14866345D01*
X139917592Y-14903608D01*
X139861867Y-14940074D01*
X139853914Y-14946560D01*
X139402781Y-15319770D01*
X139355837Y-15367043D01*
X139308246Y-15413648D01*
X139301704Y-15421555D01*
X138931652Y-15875283D01*
X138894765Y-15930802D01*
X138857151Y-15985737D01*
X138852269Y-15994764D01*
X138577395Y-16511728D01*
X138551989Y-16573367D01*
X138525767Y-16634548D01*
X138522732Y-16644351D01*
X138353505Y-17204859D01*
X138340563Y-17270219D01*
X138326716Y-17335367D01*
X138325643Y-17345573D01*
X138268508Y-17928276D01*
X138265000Y-17963896D01*
X77735000Y-17963896D01*
X77735000Y-17963895D01*
X77731772Y-17931116D01*
X77731902Y-17912441D01*
X77730901Y-17902227D01*
X77669700Y-17319938D01*
X77656294Y-17254631D01*
X77643821Y-17189245D01*
X77640857Y-17179428D01*
X77640856Y-17179421D01*
X77640853Y-17179415D01*
X77467718Y-16620107D01*
X77441903Y-16558696D01*
X77416949Y-16496931D01*
X77412131Y-16487870D01*
X77133655Y-15972838D01*
X77096392Y-15917592D01*
X77059926Y-15861867D01*
X77053440Y-15853914D01*
X76680230Y-15402781D01*
X76632957Y-15355837D01*
X76586352Y-15308246D01*
X76578445Y-15301704D01*
X76124717Y-14931652D01*
X76069198Y-14894765D01*
X76014263Y-14857151D01*
X76005236Y-14852269D01*
X75488272Y-14577395D01*
X75426633Y-14551989D01*
X75365452Y-14525767D01*
X75355649Y-14522732D01*
X74795141Y-14353505D01*
X74729781Y-14340563D01*
X74664633Y-14326716D01*
X74654427Y-14325643D01*
X74071724Y-14268508D01*
X74071723Y-14268508D01*
X74036105Y-14265000D01*
X17963895Y-14265000D01*
X17931116Y-14268228D01*
X17912441Y-14268098D01*
X17902227Y-14269099D01*
X17319938Y-14330300D01*
X17254631Y-14343706D01*
X17189245Y-14356179D01*
X17179428Y-14359143D01*
X17179421Y-14359144D01*
X17179415Y-14359147D01*
X16620107Y-14532282D01*
X16558696Y-14558097D01*
X16496931Y-14583051D01*
X16487870Y-14587869D01*
X15972838Y-14866345D01*
X15917592Y-14903608D01*
X15861867Y-14940074D01*
X15853914Y-14946560D01*
X15402781Y-15319770D01*
X15355837Y-15367043D01*
X15308246Y-15413648D01*
X15301704Y-15421555D01*
X14931652Y-15875283D01*
X14894765Y-15930802D01*
X14857151Y-15985737D01*
X14852269Y-15994764D01*
X14577395Y-16511728D01*
X14551989Y-16573367D01*
X14525767Y-16634548D01*
X14522732Y-16644351D01*
X14353505Y-17204859D01*
X14340563Y-17270219D01*
X14326716Y-17335367D01*
X14325643Y-17345573D01*
X14268508Y-17928276D01*
X14265000Y-17963896D01*
X735000Y-17963896D01*
X735000Y-6528876D01*
X808221Y-5598514D01*
X1019322Y-4719216D01*
X1365372Y-3883779D01*
X1837855Y-3112756D01*
X2425137Y-2425137D01*
X3112755Y-1837856D01*
X3883781Y-1365371D01*
X4719220Y-1019321D01*
X5598514Y-808221D01*
X6528875Y-735000D01*
X209971124Y-735000D01*
X210901486Y-808221D01*
M02*
