M48
; DRILL file {KiCad (5.1.5-0-10_14)} date Friday, January 24, 2020 at 10:17:25 PM
; FORMAT={-:-/ absolute / metric / decimal}
; #@! TF.CreationDate,2020-01-24T22:17:25-08:00
; #@! TF.GenerationSoftware,Kicad,Pcbnew,(5.1.5-0-10_14)
; #@! TF.FileFunction,Plated,1,2,PTH
FMAT,2
METRIC
T1C0.400
T2C1.100
%
G90
G05
T1
X3.3Y-23.5
X3.3Y-40.5
X3.3Y-57.5
X3.3Y-74.5
X9.5Y-3.3
X19.5Y-84.7
X26.5Y-3.3
X36.5Y-84.7
X43.5Y-3.3
X53.5Y-84.7
X60.5Y-3.3
X70.5Y-84.7
X77.5Y-3.3
X82.334Y-50.33
X87.5Y-84.7
X88.265Y-36.487
X88.379Y-41.465
X88.443Y-50.33
X88.45Y-43.75
X89.268Y-45.25
X94.5Y-3.3
X100.19Y-42.1
X100.19Y-48.946
X101.435Y-40.818
X101.435Y-48.92
X104.5Y-84.7
X107.925Y-68.885
X108.42Y-31.534
X108.926Y-56.84
X109.969Y-56.113
X110.16Y-68.936
X111.28Y-3.3
X111.544Y-63.144
X113.36Y-43.675
X113.449Y-31.585
X113.563Y-55.296
X116.256Y-44.056
X121.5Y-84.7
X125.006Y-21.907
X128.28Y-3.3
X138.5Y-84.7
X145.5Y-3.3
X155.5Y-84.7
X162.5Y-3.3
X172.5Y-84.7
X179.5Y-3.3
X189.5Y-84.7
X196.5Y-3.3
X206.5Y-84.7
X212.7Y-13.5
X212.7Y-30.5
X212.7Y-47.5
X212.7Y-64.5
T2
X78.948Y-39.51
X78.948Y-48.49
X84.898Y-39.87
X84.898Y-48.13
T0
M30
